<?xml version="1.0" encoding="UTF-8"?>
<svg id="Layer_1" xmlns="http://www.w3.org/2000/svg" version="1.1" viewBox="0 0 384 128">
  <!-- Generator: Adobe Illustrator 30.0.0, SVG Export Plug-In . SVG Version: 2.1.1 Build 123)  -->
  <defs>
    <style>
      .st0 {
        fill: #adc27b;
      }

      .st1 {
        fill: #ed1e67;
      }

      .st2 {
        fill: #fbb042;
      }
    </style>
  </defs>
  <g>
    <g>
      <path class="st1" d="M17.94,58.54l-1.18-16.3c-.34-4.37-2.73-6.39-3.95-6.55-.38-.08-.63.08-.63.59,0,17.31.84,26.59,3.36,26.59v.25H1.68v-.17c3.74,0,3.82-11.72,3.82-29.4s-.08-29.07-3.82-29.07v-.17h13.53c2.77,0,10.04.63,10.04,15,0,12.1-5.46,15.12-11.43,15.88-.25.04-.25.08,0,.13,5.75.67,9.96,1.68,10.46,7.6l1.01,16c.08,1.39.63,2.56.92,2.56.59,0,1.18-3.19.63-16.13,0-.29.13-.5.38-.5.21,0,.38.17.38.46.21,13.4.97,18.9-4.58,18.9-2.77,0-4.75-1.3-5.08-5.67ZM12.1,34.18c0,.59.29.63.67.63,4.16-.21,4.87-6.85,4.87-15.54,0-12.22-1.39-14.12-3.02-14.12-2.52,0-2.6,4.41-2.6,22.68,0,2.77,0,3.57.08,6.34Z"/>
      <path class="st1" d="M31.25,32.08c0-14.58.67-27.6-3.53-27.6v-.17h22.01c-.67,6.13-.63,12.39-.63,18.69,0,.38-.34.42-.38.08-2.56-14.54-5.8-17.94-7.77-17.94-3.36,0-3.11,4.66-3.11,25.58,0,.59.21.88.92.84,2.56-.04,3.61-3.87,5.67-13.02.08-.42.38-.38.42-.04.84,9.07.84,18.27.04,27.39-.04.54-.38.54-.5.04-2.02-9.24-3.15-13.44-5.63-13.53-.71,0-.92.25-.92.92,0,23.36.17,28.94,3.44,28.94,2.9,0,6.38-9.41,7.94-25.37.04-.5.38-.54.38,0,.04,8.74.21,17.47.92,26.21h-22.81v-.17c4.2,0,3.53-16.13,3.53-30.88Z"/>
      <path class="st1" d="M60.61,4.31h7.56c-.34,2.27.04,4.45.25,6.47,5.92,47.6,7.06,49.74,9.7,52.17v.17h-28.15v-.17c4.5-1.72,7.77-21.59,10.63-58.64ZM63.63,62.95c3.49,0,3.91-4.91,2.44-19.66,0-.21-.13-.34-.34-.34h-6.85c-.21,0-.34.13-.34.34-.71,13.48.38,19.66,5.08,19.66ZM59.01,42.12h6.64c.21,0,.34-.13.29-.34-1.3-10.71-2.56-21.42-4.45-35.83-.04-.34-.21-.13-.25.08-1.34,14.16-2.14,26.42-2.56,35.75,0,.21.13.34.34.34Z"/>
      <path class="st1" d="M80.35,31.53c0-17.6.25-27.05-3.57-27.05v-.17h12.31c7.06,0,12.39,12.27,12.39,29.03s-5.33,29.78-12.39,29.78h-12.31v-.17c3.82,0,3.57-12.39,3.57-31.42ZM89.42,62.28c2.35,0,4.16-9.03,4.16-28.94,0-18.48-1.76-28.19-4.24-28.19-2.23,0-2.48,2.77-2.48,27.98s.25,29.15,2.56,29.15Z"/>
      <path class="st1" d="M110.38,47.54c-5-35.58-8.36-41.38-11.01-43.06v-.17h28.48v.17c-4.12,1.3-7.44,15.33-10.96,43.14,0,9.37.25,15.33,3.49,15.33v.17h-13.57v-.17c3.49,0,3.57-6.05,3.57-15.42ZM116.3,44.39c.08.34.21.29.25.04,4.2-28.52,2.65-39.95-2.98-39.95-3.95,0-3.53,5,2.73,39.91Z"/>
    </g>
    <g>
      <polygon class="st0" points="120.71 67.14 106.36 65.93 61.3 66.94 53.89 66.02 54.24 65.47 59.02 66.25 68.78 66.11 82.49 65.41 88.77 60.88 88.4 56.75 80.43 57.41 74.7 55.62 47.21 52.76 34.06 61.09 21.5 77.45 13.41 83.05 5.53 86.14 3.72 102.91 17.86 120.29 26.35 118.26 51.81 123.92 66.56 121.7 72.82 115.03 74.64 109.78 79.89 107.35 81.91 101.7 80.1 97.65 87.17 94.42 87.77 88.16 80.5 82.1 85.96 80.28 115.63 76.79 122.53 74.62 123.14 70.58 120.71 67.14"/>
      <path d="M73.45,107.73c-.22,0-.36-.06-.38-.06l.15-.37s.44.13.86-.08c.5-.25,1.23-.99,1.67-3.13l.13.07c-.23,1.66-.47,2.9-1.48,3.41-.25.13-.78.16-.96.16Z"/>
      <path d="M76.87,94.52s-.06,0-.07,0l.03-.39c.09,0,2.21.1,2.99-3.68.09-.42.06-1.26.05-1.81,0-.23-.01-.43,0-.55h.18c0,.13.09.59.11.81.06.59.15,1.47.05,1.93-.79,3.81-2.93,3.7-3.34,3.7Z"/>
      <path d="M122.18,68.34c-2.42-2.16-6.78-1.86-6.95-1.85l-22.13-.34-15.2.37c2.77-.07,6.88-.71,9.48-3.62,4.25-4.77,1.04-6.85,1.01-6.89l-.09-.09-9.73,1.03-4.48-2.08-24.08-2.42-3.15-.15-14.08,8.52-14.47,19.82-9.83,2.21.09.39,10.29-1.87,14.4-20.45,13.78-8.17,2.92.09,24,2.4,5.66,3,8.56-1.87c.47.56,2.55,2.15-1.11,6.25-3.97,4.45-11.71,3.31-12.12,3.37l-16.7.04-3.57-1.16c-.22-.02-.44-.05-.66-.07l-.58,1.97,9.03.5,30.61-.74,22.14.33s4.38-.3,6.67,1.75c.88.79,1.35,1.84,1.4,3.11.05,1.27-.35,2.32-1.16,3.1-2.13,2.05-6.46,1.75-6.53,1.74l-18.82,1.01-17.48,2.91-.13.91,17.65-3.43,18.77-1.01c.18.01,4.55.31,6.81-1.85.9-.87,1.33-2.01,1.29-3.4-.05-1.39-.56-2.53-1.53-3.39ZM54.57,65.47s2.46.64,2.46.64h-2.6s.14-.64.14-.64ZM59.31,66.44l15.65-.04h.04s1.16.16,2.79.12l-15.27.37-3.21-.46Z"/>
      <path d="M49.75,123.87h-.04s-22.18-5.45-22.18-5.45l-11.27,2.21-.08-.39,11.36-2.23,22.3,4.72,15.81-1.87s5.21-1.05,6.97-4.76c1.76-3.72,1.01-6.5,1-6.53l-.07-.24.09-.39c.07,0,6.9-.08,8.06-4.73,1.16-4.64-2.26-6.43-2.3-6.44l-.74-.37.14-.26c.08,0,8.39.19,9.16-5.43.78-5.65-8.68-10.26-8.78-10.3l.17-.36c.4.19,9.82,4.78,9,10.71-.69,4.98-6.36,5.85-8.25,6,.98.75,2.93,2.76,1.98,6.55-1.1,4.42-6.8,5.25-8.03,5.38.15.76.48,3.29-1.08,6.58-1.84,3.88-7.08,5.3-7.3,5.36l-15.92,2.23Z"/>
      <path d="M116.23,68.26s-.81,2.02-.71,3.33,1.21,3.94,1.21,3.94c0,0,6.67.51,6.26-3.84s-6.77-3.44-6.77-3.44Z"/>
    </g>
  </g>
  <g>
    <g>
      <path class="st1" d="M145.76,62.15c-1.13,0-1.97.55-2.48,1.39-.17.34-.46.25-.42-.17.8-6.43.8-14.45.88-25.29,0-.5.46-.63.55,0,1.22,14.28,3.61,24.91,7.9,24.91,2.18,0,3.02-2.65,3.02-6.3,0-14.2-11.85-27.72-11.85-41.25,0-9.87,6.05-12.35,9.62-12.35,2.73,0,4.33,1.55,5.5,1.55.8,0,1.3-.38,1.51-1.01.13-.5.59-.42.55.13-.55,5.29-.76,14.37-1.05,22.56,0,.34-.5.59-.59,0-1.39-17.56-3.57-22.39-6.13-22.39-1.6,0-2.86,1.8-2.86,6.01,0,13.61,12.18,29.32,12.18,42.22,0,8.49-5.29,11.76-9.45,11.76-3.07,0-4.96-1.77-6.89-1.77Z"/>
      <path class="st1" d="M165.75,31.91c0-14.58.67-27.6-3.53-27.6v-.17h22.01c-.67,6.13-.63,12.39-.63,18.69,0,.38-.34.42-.38.08-2.56-14.54-5.8-17.94-7.77-17.94-3.36,0-3.11,4.66-3.11,25.58,0,.59.21.88.92.84,2.56-.04,3.61-3.87,5.67-13.02.08-.42.38-.38.42-.04.84,9.07.84,18.27.04,27.39-.04.54-.38.54-.5.04-2.02-9.24-3.15-13.44-5.63-13.53-.71,0-.92.25-.92.92,0,23.36.17,28.94,3.44,28.94,2.9,0,6.38-9.41,7.94-25.37.04-.5.38-.54.38,0,.04,8.74.21,17.47.92,26.21h-22.81v-.17c4.2,0,3.53-16.13,3.53-30.88Z"/>
      <path class="st1" d="M195.95,31.36c0-17.52.17-26.38-2.14-26.38-1.6,0-2.73,9.41-4.58,29.74-.04.67-.59.71-.63.04-.55-9.45-.8-22.05-1.55-30.62h24.32c-.63,8.61-1.05,21.09-1.55,30.5-.04.67-.59.63-.67-.04-1.85-20.29-2.56-29.62-4.54-29.62s-2.14,8.91-2.14,26.46c0,19.03.21,31.34,3.49,31.34v.17h-13.57v-.17c3.82,0,3.57-12.39,3.57-31.42Z"/>
      <path class="st1" d="M207.83,59.55c0-2.61,2.1-4.66,4.66-4.66s4.71,2.06,4.71,4.66-2.1,4.66-4.71,4.66-4.66-2.06-4.66-4.66Z"/>
      <path class="st1" d="M219.76,59.55c0-2.61,2.1-4.66,4.66-4.66s4.71,2.06,4.71,4.66-2.1,4.66-4.71,4.66-4.66-2.06-4.66-4.66Z"/>
      <path class="st1" d="M231.69,59.55c0-2.61,2.1-4.66,4.66-4.66s4.71,2.06,4.71,4.66-2.1,4.66-4.71,4.66-4.66-2.06-4.66-4.66Z"/>
    </g>
    <g>
      <polygon class="st0" points="133.82 85.96 141.7 82.88 149.78 77.28 167.16 54.64 180.9 40.3 185.34 36.26 186.34 28.97 191.2 31.41 193.02 39.69 187.77 51.21 178.88 64.95 189.59 66.77 234.65 65.76 248.99 66.97 251.42 70.41 250.81 74.45 243.92 76.62 214.24 80.1 208.78 81.92 216.06 87.99 215.45 94.25 208.38 97.48 210.2 101.52 208.18 107.18 202.92 109.61 201.11 114.86 194.84 121.53 180.09 123.75 154.63 118.09 146.14 120.11 132 102.74 133.82 85.96"/>
      <path d="M201.74,107.56c-.22,0-.36-.06-.38-.06l.15-.37s.44.13.86-.08c.5-.25,1.23-.99,1.67-3.13l.13.07c-.23,1.66-.47,2.9-1.48,3.41-.25.13-.78.16-.96.16Z"/>
      <path d="M205.15,94.35s-.06,0-.07,0l.03-.39c.09,0,2.21.1,2.99-3.68.09-.42.06-1.26.05-1.81,0-.23-.01-.43,0-.55h.18c0,.13.09.59.11.81.06.59.15,1.47.05,1.93-.79,3.81-2.93,3.7-3.34,3.7Z"/>
      <path d="M136.87,83.08l-.09-.39,9.83-2.21,16.32-22.37,17.01-17.82,4.19-2.6,2.04-8.89.13-.02s4.64-.81,6.28,5.35c1.62,6.06-1.4,12.4-1.43,12.46l-.02.03-10.28,13.3-1.16,5.2,11.1,1.59,30.58-.74,22.13.34c.17-.01,4.53-.31,6.95,1.85.97.86,1.48,2.01,1.53,3.39.05,1.39-.38,2.54-1.29,3.4-2.25,2.17-6.62,1.87-6.81,1.85l-18.77,1.01-17.65,3.43.13-.91,17.48-2.91,18.82-1.01c.07,0,4.4.3,6.53-1.74.82-.79,1.21-1.83,1.16-3.1-.05-1.28-.52-2.32-1.4-3.11-2.29-2.05-6.63-1.75-6.67-1.75l-22.14-.33-30.61.74-12.04-1.31,1.78-6.08,10.29-13.32c.18-.37,2.93-6.41,1.39-12.17-1.42-5.31-4.97-5.17-5.7-5.09l-.69,8.38-5.62,3.08-16.96,17.76-16.08,22.84-10.29,1.87Z"/>
      <path d="M178.04,123.7h-.04s-22.18-5.45-22.18-5.45l-11.27,2.21-.08-.39,11.36-2.23,22.3,4.72,15.81-1.87s5.21-1.05,6.97-4.76c1.76-3.72,1.01-6.5,1-6.53l-.07-.24.09-.39c.07,0,6.9-.08,8.06-4.73,1.16-4.64-2.26-6.43-2.3-6.44l-.74-.37.14-.26c.08,0,8.39.19,9.16-5.43.78-5.65-8.68-10.26-8.78-10.3l.17-.36c.4.19,9.82,4.78,9,10.71-.69,4.98-6.36,5.85-8.25,6,.98.75,2.93,2.76,1.98,6.55-1.1,4.42-6.8,5.25-8.03,5.38.15.76.48,3.29-1.08,6.58-1.84,3.88-7.08,5.3-7.3,5.36l-15.92,2.23Z"/>
      <path d="M244.51,68.09s-.81,2.02-.71,3.33,1.21,3.94,1.21,3.94c0,0,6.67.51,6.26-3.84s-6.77-3.44-6.77-3.44Z"/>
    </g>
  </g>
  <g>
    <g>
      <path class="st1" d="M279.21,33.68c0-16.59,4.66-30.33,12.35-30.33,3.74,0,4.62,3.15,6.05,3.15.76,0,1.34-.76,1.89-2.77.13-.42.5-.38.5.08-.5,6.72-.97,12.77-1.22,20.29,0,.63-.59.71-.67-.17-1.68-12.9-4.2-19.74-6.72-19.74-3.11,0-4.28,9.87-4.28,29.19,0,20.75,1.34,29.87,4.41,29.87,1.55,0,2.73-2.56,2.73-11.47.04-17.56.34-21.21-3.19-21.21v-.17h12.48v.17c-3.19,0-2.86,3.61-3.15,23.06-.08,4.33.29,8.28.76,10.63.04.25-.38.54-.55.17-1.85-3.7-2.48-4.92-3.4-4.92-1.64,0-3.28,4.75-6.43,4.75-6.6,0-11.55-13.48-11.55-30.58Z"/>
      <path class="st1" d="M305.16,33.8c0-16.01,3.91-30.46,11.55-30.46s11.68,14.45,11.68,30.46-3.99,30.46-11.68,30.46-11.55-14.45-11.55-30.46ZM316.71,63.42c2.69,0,3.74-8.15,3.74-29.62s-1.05-29.62-3.74-29.62-3.65,8.15-3.65,29.62,1.09,29.62,3.65,29.62Z"/>
      <path class="st1" d="M336.37,52.24c-.38-4.75-2.77-6.3-2.77-9.7,0-29.24.25-37.97-3.57-37.97v-.17h13.57v.17c-3.32,0-3.49,8.82-3.49,38.06,0,3.4-2.44,4.87-2.9,9.62-.04.25-.21.38-.42.38-.17,0-.42-.13-.42-.38ZM336.79,55.14c2.6,0,4.7,2.06,4.7,4.66s-2.1,4.66-4.7,4.66-4.66-2.06-4.66-4.66,2.1-4.66,4.66-4.66Z"/>
      <path class="st1" d="M350.06,52.24c-.38-4.75-2.77-6.3-2.77-9.7,0-29.24.25-37.97-3.57-37.97v-.17h13.57v.17c-3.32,0-3.49,8.82-3.49,38.06,0,3.4-2.44,4.87-2.9,9.62-.04.25-.21.38-.42.38-.17,0-.42-.13-.42-.38ZM350.48,55.14c2.6,0,4.7,2.06,4.7,4.66s-2.1,4.66-4.7,4.66-4.66-2.06-4.66-4.66,2.1-4.66,4.66-4.66Z"/>
      <path class="st1" d="M363.75,52.24c-.38-4.75-2.77-6.3-2.77-9.7,0-29.24.25-37.97-3.57-37.97v-.17h13.57v.17c-3.32,0-3.49,8.82-3.49,38.06,0,3.4-2.44,4.87-2.9,9.62-.04.25-.21.38-.42.38-.17,0-.42-.13-.42-.38ZM364.17,55.14c2.6,0,4.7,2.06,4.7,4.66s-2.1,4.66-4.7,4.66-4.66-2.06-4.66-4.66,2.1-4.66,4.66-4.66Z"/>
    </g>
    <g>
      <polygon class="st0" points="264.31 98.27 269.54 91.62 273.66 82.68 277.17 54.37 281.73 35.03 283.52 29.3 280.68 22.52 286.11 22.15 291.88 28.36 293.19 40.96 292.49 57.31 302.65 53.44 340.97 29.72 353.95 23.49 357.78 25.23 359.31 29.02 354.47 34.38 330.66 52.44 326.88 56.77 336.22 58.31 338.87 64.01 334.42 70.39 338.03 72.95 339.16 78.85 335.86 83.6 336.96 89.05 334.94 97.98 323.35 107.37 298.54 115.41 292.25 121.45 271.25 113.65 264.31 98.27"/>
      <path d="M333.8,82.44c-.19.11-.34.14-.35.14l-.05-.39s.45-.11.7-.5c.31-.48.56-1.47-.15-3.55h.14c.64,1.54,1.06,2.73.46,3.68-.15.24-.59.54-.75.63Z"/>
      <path d="M330.05,69.32s-.05.03-.06.03l-.17-.36c.08-.04,1.95-1.03.71-4.69-.14-.41-.58-1.12-.88-1.59-.12-.2-.23-.36-.28-.47l.16-.08c.06.1.37.45.5.63.36.48.87,1.19,1.02,1.64,1.25,3.69-.65,4.67-1,4.88Z"/>
      <path d="M265.47,94.23l-.27-.29,7.35-6.89,2.73-27.56,5.62-23.98,2.3-4.37-2.75-8.7.1-.09s3.59-3.05,8.13,1.43c4.47,4.41,5.08,11.4,5.09,11.47v.04s-2.11,16.68-2.11,16.68l1.64,5.07,10.37-4.26,25.98-16.15,19.25-10.93c.14-.1,3.75-2.57,6.93-1.93,1.27.26,2.29.98,3.04,2.15.75,1.17.96,2.38.62,3.58-.84,3.01-4.76,4.97-4.93,5.05l-15.66,10.39-13.48,11.9-.35-.85,13.59-11.37,15.71-10.42c.06-.03,3.95-1.97,4.74-4.81.31-1.09.11-2.19-.57-3.26-.69-1.08-1.62-1.74-2.78-1.97-3.01-.61-6.6,1.85-6.64,1.88l-19.26,10.94-26,16.16-11.04,4.98-1.55-6.14,2.12-16.7c-.04-.41-.73-7.01-4.97-11.2-3.91-3.86-6.91-1.94-7.49-1.49l3.65,7.57-3.28,5.5-5.61,23.91-2.28,27.84-7.92,6.82Z"/>
      <path d="M321.56,108.37h-.04s-21.88,6.57-21.88,6.57l-8.59,7.62-.26-.3,8.66-7.68,21.61-7.24,12.68-9.63s3.96-3.55,3.59-7.63c-.37-4.1-2.43-6.11-2.45-6.13l-.18-.17-.12-.38c.06-.04,5.91-3.56,4.55-8.16-1.35-4.59-5.21-4.39-5.25-4.39l-.83.05-.02-.3c.07-.04,7.33-4.09,5.15-9.32-2.19-5.27-12.69-4.44-12.79-4.43l-.03-.39c.44-.04,10.89-.86,13.19,4.67,1.93,4.64-2.51,8.27-4.07,9.35,1.23.15,3.92.9,5.03,4.64,1.29,4.37-3.2,7.98-4.19,8.71.52.58,2.08,2.6,2.41,6.21.38,4.27-3.41,8.16-3.58,8.32l-12.59,10Z"/>
      <path d="M350.65,26.73s.33,2.15,1.08,3.23c.75,1.08,3.04,2.78,3.04,2.78,0,0,6-2.95,3.45-6.49-2.55-3.54-7.58.47-7.58.47Z"/>
    </g>
    <g>
      <polygon class="st2" points="350.15 27.21 335.72 23.93 336.17 22.39 350.15 27.21"/>
      <polygon class="st2" points="351.49 24.91 337.29 12.48 338.39 11.32 351.49 24.91"/>
      <polygon class="st2" points="353.74 23.49 348.84 11.52 350.36 11.01 353.74 23.49"/>
      <polygon class="st2" points="356.4 23.28 357.7 9.91 359.28 10.16 356.4 23.28"/>
      <polygon class="st2" points="358.85 24.33 367.79 10.98 369.08 11.94 358.85 24.33"/>
      <polygon class="st2" points="360.53 26.4 371.06 20.45 371.76 21.9 360.53 26.4"/>
      <polygon class="st2" points="361.05 29.01 375.47 28.73 375.41 30.33 361.05 29.01"/>
      <polygon class="st2" points="360.3 31.57 371.37 36.96 370.57 38.36 360.3 31.57"/>
      <polygon class="st2" points="358.45 33.48 367.43 46.06 366.08 46.92 358.45 33.48"/>
      <polygon class="st2" points="355.92 34.32 357.75 46.29 356.15 46.42 355.92 34.32"/>
      <polygon class="st2" points="353.3 33.89 347.41 49.91 345.94 49.28 353.3 33.89"/>
    </g>
  </g>
</svg>