<?xml version="1.0" encoding="UTF-8"?>
<svg id="Layer_1" xmlns="http://www.w3.org/2000/svg" version="1.1" xmlns:xlink="http://www.w3.org/1999/xlink" viewBox="0 0 648 648">
  <!-- Generator: Adobe Illustrator 30.5.1, SVG Export Plug-In . SVG Version: 2.1.4 Build 3)  -->
  <defs>
    <style>
      .st0 {
        fill: #603913;
      }

      .st1 {
        fill: #9b8579;
      }

      .st2 {
        fill: #39b54a;
      }

      .st3 {
        fill: #fa6149;
      }

      .st4 {
        fill: #f7941d;
      }

      .st5 {
        fill: #2e3192;
      }

      .st6 {
        fill: #ef4136;
      }

      .st7 {
        fill: #fff;
      }

      .st8 {
        fill: #594a42;
      }

      .st9 {
        fill: none;
      }

      .st10 {
        fill: #3c2415;
      }

      .st11 {
        fill: #c49a6c;
      }

      .st12 {
        fill: #808285;
      }

      .st13 {
        fill: #f1f2f2;
      }

      .st14 {
        fill: #231f20;
      }

      .st15 {
        fill: #42434f;
      }

      .st16 {
        fill: #262262;
      }

      .st17 {
        fill: #ee2a7b;
      }

      .st18 {
        fill: #414042;
      }

      .st19 {
        fill: #ed1c24;
      }

      .st20 {
        fill: #8b5e3c;
      }

      .st21 {
        clip-path: url(#clippath);
      }

      .st22 {
        fill: #d7df23;
      }

      .st23 {
        fill: #d1d3d4;
      }
    </style>
    <clipPath id="clippath">
      <rect class="st9" x="76.2" y="104.08" width="468.6" height="185.49" transform="translate(-2.4 3.84) rotate(-.71)"/>
    </clipPath>
  </defs>
  <path class="st23" d="M43.19,614.27l224.29,24.85,278.18-6.47,40.81-.34,7.15-10.21-6.6-450.55s7.66-127.15,8.43-130.98,9.96-19.15,9.96-19.15l-15.32-2.3-1.57-3.66-13.54-4.43-172.55.43h-169.28L40.89,20.65l-3.83,116.43-3.06,226.72,9.19,250.47Z"/>
  <g>
    <g id="Layer_3">
      <path class="st3" d="M101.62,61.6c.29-.69.39-1.41.24-1.87s-.31-.68-.24-1.03,1.32-.75,1.84-.91c.85-.25,1.6-.44,2.27-.5.32-.02.41.14.21.3-.32.25-1,.82-1.76,1.34-1.15.79-.91,1.8-2.55,2.67ZM100.35,60.47c-.07.71-.88,2.13-.88,2.13,0,0-.07-.23-.11-.37s-.15-.16-.15-.16c0,0-.29,1.26-.68,1.58-.85.69-1.41.43-2.23,2.33-.17.4,0,1.23-.12,1.42.07.21.15.57.02,1.08-.43-.13-1.23-.18-1.23-.18,0,0,.62.29,1.01.48-.03.21-.58,1.45-.72,1.58-.65-.23-1.44-.37-1.44-.37,0,0,.57.34,1.19.68-.09.24-.83,1.19-1.02,1.3-.55-.46-1.28-.7-1.28-.7,0,0,.4.39,1.11.99-.75.6-1.68.44-2.39.31-.07-.02-.33-.48-.33-.48,0,0-.2.48-.7.15-.32-.21-.62-.62-.61-1.04,0-.45.35-1.06,1.44-1.68.66-.38.96-1.19.89-2.12.04-.28.21-1.75.33-2.41.14-.83.49-2.44,1.18-3.45.58-.83,1.43-1.24,2.93-1.78,1.68-.6,2.71-.65,3.6-.76,0-.03.29.51.19,1.45ZM96.77,62.01c.41-.45.55-1.01.55-1.01,0,0-1.38.32-1.94.42-.99.18-1.09.43-1.43.91-.26.37-.28.64-.17,1.22.03.18.16.26.27.45.12.21.16.62.23.61.11-.01.51-.44.96-.58.79-.24.95-1.39,1.54-2.03ZM94.96,63.97c-.39,0-.71-.35-.72-.79s.31-.73.69-.82c.7-.18.63.29.72.79.08.43-.3.81-.69.82ZM94.87,63.37s-.03-.06-.06-.06-.06.03-.06.06.03.06.06.06c.04,0,.06-.04.06-.06ZM95.14,63.38c0-.05-.04-.1-.07-.1s-.07.05-.07.1.04.1.07.1.07-.05.07-.1ZM95.14,63.1c0-.12-.08-.21-.18-.2-.09,0-.17.09-.17.21s.08.21.18.2c.09,0,.17-.09.17-.21ZM76.75,62.14c-.32-.68-.45-1.39-.32-1.85s.28-.69.19-1.04-1.35-.69-1.88-.83c-.86-.22-1.62-.37-2.29-.4-.32-.01-.4.16-.19.31.33.24,1.04.77,1.82,1.26,1.18.74.99,1.76,2.67,2.55ZM78.11,59.47c.89.07,1.93.08,3.63.6,1.53.46,2.4.84,3.01,1.65.74.98,1.15,2.57,1.33,3.4.14.67.38,2.12.43,2.39-.02.93.31,1.73.98,2.07,1.11.57,1.49,1.16,1.51,1.61.03.42-.25.85-.56,1.07-.49.35-.71-.12-.71-.12,0,0-.23.48-.31.49-.7.16-1.63.36-2.4-.21.68-.63,1.06-1.03,1.06-1.03,0,0-.73.28-1.25.76-.18-.1-.98-1.02-1.08-1.25.61-.37,1.16-.73,1.16-.73,0,0-.78.17-1.42.43-.15-.12-.75-1.34-.79-1.55.38-.21.99-.53.99-.53,0,0-.8.09-1.22.23-.15-.5-.08-.87-.02-1.08-.13-.18,0-1.02-.18-1.41-.91-1.87-1.45-1.59-2.33-2.23-.4-.3-.75-1.55-.75-1.55,0,0-.1.03-.14.17-.03.14-.09.37-.09.37,0,0-.87-1.39-.98-2.09-.15-.91.13-1.46.13-1.46ZM83.24,64.3c.46.12.88.53.99.54.07,0,.09-.4.2-.62.1-.19.22-.28.25-.47.1-.59.05-.85-.23-1.21-.35-.46-.48-.71-1.47-.84-.57-.08-1.96-.34-1.96-.34,0,0,.17.55.59.98.61.62.82,1.76,1.62,1.96ZM82.77,63.42c.07-.51-.02-.97.69-.82.38.08.71.35.72.79s-.3.81-.69.82c-.39.02-.78-.34-.72-.79ZM83.62,63.67s.06-.03.06-.06-.03-.06-.06-.06-.06.03-.06.06c0,.04.04.06.06.06ZM83.37,63.72s.07-.05.07-.1-.04-.1-.07-.1-.07.05-.07.1c0,.06.04.1.07.1ZM83.46,63.56c.09,0,.17-.09.17-.21s-.08-.21-.18-.2c-.09,0-.17.09-.17.21,0,.12.09.21.18.2ZM91.47,67.5c-.2-.3-.58-.36-1.14-.39-.51-.03-1.04-.01-1.04-.01,0,0-.53.01-1.04.06-.56.06-.94.14-1.12.44-.21.35-.29,1.09.96,1.88.06.04.1-.13-.1-.31-.3-.27-.47-1.18-.29-1.14.45.12.94.89.76,1.49-.04.15.32.43.48.49.26.09.41.09.41.09,0,0,.15,0,.4-.11.16-.07.51-.35.46-.51-.2-.58.26-1.39.7-1.52.18-.06.05.87-.24,1.15-.19.18-.14.36-.08.31,1.2-.84,1.09-1.57.86-1.92ZM105.44,59.39c.1.8-.05,1.57-.2,1.69-.01-.27-.08-.48-.18-.64-.12-.23-.28-.33-.28-.33,0,0,.18.68.03,2.74-.09,1.3-.86,2.63-.86,2.63,0,0,0-.53-.22-1.18-.19-.55-.61-.89-.61-.89,0,0,.36,1.14.41,1.63.43,3.67-2.42,5.67-2.42,5.67,0,0,.06-.44-.12-1.24-.13-.61-.56-.96-.56-.96.23.44.38,1.46.09,2.11-.25.57-.6.82-1.17,1.41-.64.66-2.08,1.29-2.08,1.29,0,0,.06-.83-.05-.99.01.16-.36,1.16-.84,1.4-.44.22-1.08.72-1.37,1.28.04-.53.09-1.01.16-1.44-.64.95-1.67,2.38-2.73,3.09.07-.65.21-1.03-.03-1.48-.11,1.2-1.44,2.39-1.44,2.39,0,0,.26-1.31.11-1.97-.9,2.64-1.57,3.13-1.57,3.13,0,0-.69-.46-1.7-3.06-.12.66.2,1.97.2,1.97,0,0-1.38-1.13-1.54-2.32-.22.47-.06.83.03,1.48-1.09-.67-2.19-2.04-2.87-2.96.09.42.16.9.22,1.43-.32-.54-.97-1.01-1.43-1.22-.49-.22-.91-1.19-.9-1.36-.11.17,0,.99,0,.99,0,0-1.48-.57-2.13-1.2-.6-.57-.96-.81-1.23-1.36-.32-.64-.21-1.67,0-2.11,0,0-.42.36-.52.99-.14.81-.06,1.25-.06,1.25,0,0-2.92-1.88-2.66-5.56.03-.49.34-1.64.34-1.64,0,0-.4.37-.57.92-.19.65-.16,1.19-.16,1.19,0,0-.83-1.28-.98-2.58-.23-2.05-.09-2.74-.09-2.74,0,0-.15.1-.26.34-.08.16-.15.37-.15.64-.16-.11-.34-.88-.27-1.68.05-.61.25-.73.25-.73,0,0,.98.49,1.47,1.35.98,1.7,2.43,1.99,2.84,2.12.05-.37-.68-1.56-.54-2.41.12-.74.57-.79.17-1.49-.24-.42-1.23-.73-2.13-.94-.23-.05-.67-.13-.81-.16-.55-.11-.91-.12-1.19-.46-.26-.31-.19-.63-.19-.63,0,0,.55.22,1.11-.16.72-.49-.18-1.26,1.05-2.41.76-.71,1.78-.59,1.78-.59,0,0-.62-.39-1.34-.34-.67.04-1.17.19-1.87,1.07.34-1.77,1.19-2.41,2.07-2.91.82-.46,2.15-.63,3.06-.57,0,0-.34-.44-.95-.62-.83-.25-1.37-.17-1.78,0,.29-.59,1.39-1.17,2.9-1.29,1.79-.15,3.31.44,3.31.44,0,0,.09-.31-.51-.66-.76-.44-1.74-.49-2.13-.33.25-.35,1.36-.93,3.41-.66,1.26.17,1.81.39,1.81.39,0,0-.03-.35-.33-.58-.28-.22-.65-.31-.96-.36.2-.15,1.36-.3,2.48-.41,1.42-.13,3.1-.18,3.1-.18,0,0,1.67-.04,3.1.04,1.13.06,2.3.15,2.5.3-.31.06-.66.17-.94.4-.29.24-.3.59-.3.59,0,0,.54-.24,1.79-.46,2.02-.36,3.16.18,3.44.51-.41-.13-1.37-.04-2.11.43-.59.37-.48.68-.48.68,0,0,1.49-.66,3.28-.59,1.52.06,2.63.58,2.95,1.16-.42-.14-.96-.2-1.78.08-.6.21-.93.66-.93.66.9-.09,2.24.01,3.08.44.9.46,1.78,1.06,2.19,2.82-.73-.85-1.24-.98-1.92-.99-.72-.02-1.33.4-1.33.4,0,0,1.02-.17,1.8.51,1.28,1.09.41,1.91,1.15,2.36.58.35,1.11.11,1.11.11,0,0,.07.31-.17.64-.26.35-.62.37-1.17.51-.14.04-.58.14-.8.2-.9.25-1.87.61-2.09,1.03-.37.7.08.73.23,1.48.17.85-.5,2.06-.43,2.43.4-.14,1.84-.5,2.74-2.24.46-.88,1.41-1.41,1.41-1.41,0,0,.17.1.25.71ZM91.27,54.96h.04c.12-.55.22-1.09.33-1.63.11-.54.18-1.08.34-1.61.14-.53.38-1.02.66-1.49.3-.47.64-.9,1.06-1.27l-.02-.03c-.44.33-.83.75-1.18,1.2-.33.46-.61.96-.79,1.5-.19.54-.35,1.08-.42,1.64-.07.55-.09,1.11-.02,1.68ZM90.36,62.84h.04c.21-1.04.46-2.06.76-3.06s.63-1.99,1.09-2.93c.47-.92,1.11-1.78,1.83-2.52.72-.76,1.53-1.45,2.4-2.04l-.02-.03c-.91.54-1.74,1.2-2.51,1.94-.76.74-1.44,1.58-1.96,2.52-.5.94-.92,1.94-1.18,2.97-.13.52-.24,1.04-.32,1.56s-.13,1.06-.14,1.59ZM84.12,49.17c.42.35.79.78,1.11,1.22.32.45.56.94.73,1.46.17.52.27,1.06.41,1.59.13.53.25,1.07.4,1.62h.04c.05-.56.01-1.13-.07-1.69-.08-.56-.28-1.1-.49-1.62-.21-.53-.5-1.03-.85-1.46-.36-.43-.77-.82-1.23-1.15l-.04.04ZM81.46,52.61c.9.55,1.73,1.2,2.49,1.93.76.72,1.42,1.54,1.94,2.44.5.92.87,1.9,1.22,2.88s.64,2,.9,3.03h.04c-.03-.53-.1-1.06-.21-1.58s-.23-1.04-.39-1.55c-.31-1.02-.77-2-1.31-2.92-.56-.92-1.28-1.72-2.07-2.43-.8-.71-1.66-1.32-2.6-1.83l-.02.02ZM77.64,55.43c.68.14,1.34.36,1.95.69.61.31,1.13.77,1.66,1.22.52.45,1.02.94,1.53,1.43l.03-.02c-.18-.31-.37-.61-.6-.88-.22-.28-.46-.54-.71-.79-.51-.5-1.12-.91-1.78-1.21-.65-.31-1.35-.49-2.05-.61-.71-.09-1.41-.12-2.11-.04v.04c.7-.05,1.4.01,2.08.16ZM90.81,73.95c-.23.07-.46.07-.68.1-.23.01-.45,0-.68.01h0c-.23,0-.45.02-.68.01s-.45,0-.69-.07c.07.1.19.16.3.22.11.05.23.09.35.12.24.06.48.08.72.07h0c.24,0,.48-.04.72-.11.12-.03.23-.08.34-.13.11-.07.21-.13.29-.23ZM100.48,58.57c-1.02.04-1.58.11-2.64.33-1.56.32-2.18.63-3.34,1.18-1.09.52-1.79,1.42-2.08,2.72-.05.23-.11.49-.16.76v.02c0,.05-.02.12-.03.17,0,.02,0,.03,0,.05,0,.05-.02.11-.03.16,0,0,0,.02,0,.03-.02.06-.02.14-.04.2,0,0,0,.02,0,.03,0,.06-.02.12-.03.18-.24,1.32-.45,2.66-.45,2.66,0,0-.12-.13-.31-.19.15-1.24-.08-2.18-.08-2.18,0,0-.12,1.92-.23,2.11-.22-.03-.33-.02-.54-.03-.24-.01-.39,0-.6-.01.02-.3-.1-.51-.1-.51,0,0-.08.52-.12.52h-.37s-.19.02-.37.02c-.04,0-.15-.51-.15-.51,0,0-.11.23-.08.52-.21.01-.36.02-.6.04-.21.02-.33,0-.54.06-.12-.18-.33-2.1-.33-2.1,0,0-.2.94.01,2.18-.19.07-.3.21-.3.21,0,0-.26-1.32-.56-2.63-.01-.06-.03-.13-.04-.18,0,0,0-.02,0-.03-.02-.06-.03-.13-.05-.2,0,0,0-.02,0-.03-.01-.05-.03-.11-.04-.16,0-.02,0-.03-.01-.04-.01-.06-.03-.12-.04-.17v-.02c-.07-.27-.13-.53-.2-.75-.35-1.28-1.09-2.16-2.2-2.63-1.18-.5-1.81-.77-3.39-1.03-1.07-.18-1.63-.22-2.65-.21-.53,1.42-.2,2.76.75,4.12.4.58.54,1.14,1.06,1.68.1.11,1.02.36,1.2.52s1.2,2.48,1.15,3.23c.03.1.06.21.1.32-.25.08-.74.23-1.24.41-1.17.42-2.32,1.02-2.25,1.02,0,0,1.38-.42,2.2-.69.63-.21,1.13-.33,1.4-.39.16.5.39,1.07.68,1.59-.12.05-.26.11-.45.2-.8.37-1.93,1.18-1.93,1.18,0,0,.94-.39,2.05-.81.22-.08.39-.14.55-.19.14.22.29.43.46.61.17.18.4.47.73.78-.09.07-.19.13-.25.18-.26.2-1.04.98-1.04.98,0,0,.8-.46,1.11-.66.15-.09.3-.2.43-.28.36.3.82.61,1.4.85.75.31,1.26-.24,1.91-.52.69-.29,1.23-.5,1.23-.5l.42-.05.43.04s.55.19,1.25.44c.67.24,1.21.77,1.93.44.57-.27,1.02-.59,1.36-.91.13.08.28.17.44.26.31.18,1.13.61,1.13.61,0,0-.81-.74-1.08-.93-.06-.04-.16-.11-.26-.17.32-.32.54-.63.7-.81.16-.19.3-.4.43-.63.15.04.34.1.55.17,1.13.36,2.08.72,2.08.72,0,0-1.16-.76-1.98-1.1-.19-.08-.34-.14-.46-.18.26-.54.46-1.11.61-1.62.27.05.79.15,1.42.33.83.23,2.23.59,2.23.59.05-.01-1.11-.55-2.3-.93-.5-.15-1-.29-1.25-.35.03-.12.06-.23.08-.33-.1-.75.83-3.11,1-3.27s1.08-.46,1.18-.57c.48-.57.6-1.12.98-1.72.95-1.4,1.22-2.76.62-4.15ZM102.5,54.67v-.04c-.71-.06-1.42,0-2.11.13-.69.14-1.38.36-2.02.69s-1.23.76-1.72,1.28c-.25.26-.48.53-.68.82-.21.28-.4.59-.56.91l.03.02c.49-.52.96-1.02,1.47-1.5.5-.47,1-.95,1.61-1.29.59-.36,1.24-.6,1.92-.77.67-.17,1.38-.26,2.07-.25Z"/>
    </g>
    <g>
      <path class="st16" d="M124.41,66.3l2.01-7.6-1.68-4.98-1.49.03v-.5s8.12-.18,8.12-.18v.5s-1.54.03-1.54.03l4.18,12.32,2.88-12.48-2.65.06v-.5s5.24-.11,5.24-.11v.5s-1.72.04-1.72.04l-4.43,18.23-2.33.05-4.14-11.77-3.15,11.93-2.28.05-7.01-17.98-1.23.03v-.5s8.52-.19,8.52-.19v.5s-1.83.04-1.83.04l4.55,12.47Z"/>
      <path class="st16" d="M139.52,58.78l6.43-.14.26,12.02,1.47-.03v.47s-7.78.17-7.78.17v-.47s1.43-.03,1.43-.03l-.25-11.54-1.55.03v-.47ZM143.45,56.88c-.93.02-1.59-.2-2-.66-.4-.46-.61-1.05-.63-1.75s.19-1.28.6-1.75c.42-.46,1.07-.71,1.94-.72s1.54.17,2.01.57c.46.4.7.98.72,1.74s-.19,1.37-.62,1.84c-.43.46-1.1.71-2.03.73Z"/>
      <path class="st16" d="M147.68,51.41l6.43-.14.42,19.2,1.47-.03v.47s-7.78.17-7.78.17v-.47s1.43-.03,1.43-.03l-.41-18.73-1.55.03v-.47Z"/>
      <path class="st16" d="M165.43,70.71l-.33-1.83c-.56,1.41-1.76,2.14-3.57,2.18-1.51.03-2.68-.48-3.54-1.55s-1.3-2.67-1.35-4.83c-.09-4.35,1.59-6.57,5.05-6.65,1.54-.03,2.56.37,3.07,1.22l-.17-7.74-1.6.03v-.47s6.55-.14,6.55-.14l.42,19.2,1.29-.03v.47s-5.81.13-5.81.13ZM162.08,69.01c.21.6.57.89,1.08.88s.96-.25,1.32-.71c.37-.46.54-1.14.52-2.03l-.12-5.72c-.02-.75-.18-1.39-.49-1.91-.31-.52-.75-.77-1.33-.76s-.96.41-1.16,1.18c-.19.77-.27,2.12-.23,4.05l.03,1.36c.04,1.84.16,3.05.37,3.65Z"/>
      <path class="st16" d="M171.4,50.89l6.43-.14.42,19.2,1.47-.03v.47s-7.78.17-7.78.17v-.47s1.43-.03,1.43-.03l-.41-18.73-1.55.03v-.47Z"/>
      <path class="st16" d="M179.85,57.9l6.43-.14.26,12.02,1.47-.03v.47s-7.78.17-7.78.17v-.47s1.43-.03,1.43-.03l-.25-11.54-1.55.03v-.47ZM183.77,56c-.93.02-1.59-.2-2-.66-.4-.46-.61-1.05-.63-1.75s.19-1.28.6-1.75c.42-.46,1.07-.71,1.94-.72s1.54.17,2.01.57c.46.4.7.98.72,1.74s-.19,1.37-.62,1.84c-.43.46-1.1.71-2.03.73Z"/>
      <path class="st16" d="M188.32,57.72l6.32-.14.05,2.41c.26-.81.68-1.47,1.24-1.97.57-.5,1.44-.77,2.61-.79,2.71-.06,4.1,1.37,4.16,4.29l.17,7.9,1.47-.03v.47s-7.41.16-7.41.16v-.47s1.07-.02,1.07-.02l-.19-8.53c-.02-1.05-.11-1.72-.25-2.03s-.4-.45-.77-.44c-.56.01-1.05.39-1.46,1.13-.41.74-.61,1.64-.58,2.69l.16,7.24,1.13-.02v.47s-7.44.16-7.44.16v-.47s1.43-.03,1.43-.03l-.25-11.54-1.44.03v-.47Z"/>
      <path class="st16" d="M214.92,55.77l.72-.46c.09-.54-.12-.81-.65-.8-.75.02-1.12.6-1.09,1.76,0,.45.08.98.22,1.57,1.35.86,2.04,1.99,2.07,3.38s-.43,2.48-1.37,3.27-2.24,1.2-3.88,1.24c-.68.01-1.39-.04-2.13-.16-.76.51-1.14.88-1.13,1.13s.57.36,1.69.33l2.68-.06c3.97-.09,5.99,1.3,6.05,4.15.03,1.54-.54,2.77-1.72,3.7-1.18.93-3.04,1.42-5.57,1.47-4.32.09-6.5-.8-6.54-2.67-.02-1.01.64-1.73,1.98-2.14l1.59.67c-.13.51-.19.99-.18,1.45.03,1.5,1.17,2.23,3.41,2.18,1.36-.03,2.41-.31,3.13-.83.72-.52,1.08-1.16,1.06-1.91s-.25-1.25-.7-1.49c-.45-.24-1.34-.35-2.67-.32l-2.54.06c-1.42.03-2.44-.18-3.06-.64-.62-.46-.94-1.03-.96-1.72s.19-1.27.62-1.75c.43-.47,1.19-1.06,2.3-1.77-2.04-.53-3.09-1.84-3.13-3.92-.03-1.31.42-2.38,1.35-3.2.93-.83,2.33-1.26,4.22-1.3,1.14-.02,2.11.17,2.93.59-.12-.47-.18-.9-.19-1.28-.02-.98.23-1.69.74-2.14.51-.45,1.1-.68,1.74-.69s1.17.15,1.57.48c.4.33.61.8.62,1.39s-.13,1.04-.44,1.34c-.31.3-.69.45-1.13.46s-.82-.1-1.11-.33c-.29-.23-.45-.56-.48-1ZM209.47,60.8l.03,1.42c.03,1.17.14,1.97.35,2.38s.52.62.93.61.7-.22.88-.64c.17-.41.25-1.26.22-2.54l-.03-1.29c-.03-1.36-.14-2.26-.32-2.68-.18-.43-.48-.63-.89-.62s-.72.24-.92.69c-.2.45-.29,1.34-.26,2.67Z"/>
      <path class="st16" d="M239.14,50.73l.41,6.58h-.5c-.82-2.3-1.54-3.87-2.15-4.71s-1.48-1.24-2.6-1.22h-.31s.38,17.27.38,17.27l2.23-.05v.55s-9.56.21-9.56.21v-.55s2.22-.05,2.22-.05l-.38-17.26h-.34c-1.12.03-1.98.49-2.57,1.39-.59.9-1.23,2.48-1.92,4.75h-.5s.12-6.58.12-6.58l15.48-.34Z"/>
      <path class="st16" d="M240.66,56.58l6.43-.14.26,12.02,1.47-.03v.47s-7.78.17-7.78.17v-.47s1.43-.03,1.43-.03l-.25-11.54-1.55.03v-.47ZM244.58,54.68c-.93.02-1.59-.2-2-.66-.4-.46-.61-1.05-.63-1.75s.19-1.28.6-1.75c.42-.46,1.07-.71,1.94-.72s1.54.17,2.01.57c.46.4.7.98.72,1.74s-.19,1.37-.62,1.84c-.43.46-1.1.71-2.03.73Z"/>
      <path class="st16" d="M249.08,56.39l6.32-.14.05,2.41c.54-1.8,1.79-2.72,3.76-2.76s3.18.88,3.64,2.76c.57-1.9,1.84-2.87,3.8-2.92,2.57-.06,3.89,1.38,3.95,4.3l.17,7.9,1.47-.03v.47s-7.26.16-7.26.16v-.47s.91-.02.91-.02l-.19-8.53c-.03-1.33-.16-2.1-.39-2.33-.11-.1-.25-.15-.42-.15-.51.01-.95.36-1.32,1.05s-.54,1.56-.52,2.61l.16,7.4.94-.02v.47s-6.73.15-6.73.15v-.47s.91-.02.91-.02l-.19-8.53c-.03-1.33-.16-2.1-.39-2.33-.11-.1-.25-.15-.42-.15-.49.01-.92.39-1.3,1.14-.38.75-.55,1.64-.53,2.68l.16,7.24.94-.02v.47s-7.26.16-7.26.16v-.47s1.43-.03,1.43-.03l-.25-11.54-1.44.03v-.47Z"/>
      <path class="st16" d="M274.44,66.85c-1.15-1.14-1.75-2.74-1.8-4.82s.55-3.67,1.8-4.8c1.24-1.13,2.85-1.72,4.81-1.76,3.97-.09,5.92,1.87,5.85,5.86l-7.4.16.02,1.02c.04,1.71.28,3,.74,3.87.46.87,1.23,1.29,2.31,1.26,2.03-.04,3.33-1.16,3.92-3.34l.47.07c-.3,1.27-.88,2.26-1.73,2.98s-2.14,1.1-3.87,1.13c-2.26.05-3.96-.5-5.11-1.63ZM277.71,60.97l2.7-.06-.03-1.29c-.03-1.42-.14-2.38-.31-2.89s-.52-.76-1.01-.75-.86.29-1.08.85-.32,1.51-.29,2.85l.03,1.29Z"/>
      <path class="st16" d="M286.53,68.33l-.1-4.7h.31c.49,1.5,1.12,2.56,1.91,3.15.78.6,1.75.88,2.91.86,1.78-.04,2.66-.63,2.64-1.76-.01-.49-.24-.85-.68-1.09-.69-.37-1.57-.65-2.64-.83-1.2-.29-2.2-.69-3.02-1.19-.98-.61-1.48-1.59-1.51-2.96s.37-2.46,1.19-3.29c.82-.83,1.93-1.26,3.33-1.29.86-.02,1.74.16,2.66.55.34.13.59.2.76.19s.32-.07.44-.19c.12-.13.26-.36.43-.69h.29s.09,4.01.09,4.01h-.31c-.94-2.25-2.35-3.35-4.22-3.31-.82.02-1.43.18-1.83.47-.4.3-.59.66-.58,1.1,0,.26.07.47.2.61.12.15.22.25.3.32.07.07.19.14.35.22.16.08.29.13.4.18.11.04.27.1.49.16.22.07.38.11.49.12,1.19.27,2.06.51,2.59.72.53.21,1.03.46,1.51.77.98.64,1.48,1.71,1.51,3.18s-.38,2.61-1.24,3.39c-.86.78-2.05,1.19-3.57,1.22-1.08.02-2.14-.21-3.16-.69-.21-.14-.38-.2-.5-.2-.39,0-.75.34-1.11,1h-.31Z"/>
    </g>
    <rect class="st3" x="121.35" y="71.9" width="80.82" height="1.22" transform="translate(-1.52 3.49) rotate(-1.23)"/>
    <rect class="st3" x="227.09" y="69.72" width="69.48" height="1.22" transform="translate(-1.45 5.64) rotate(-1.23)"/>
  </g>
  <path class="st16" d="M267.51,639.62c-8.74-.73-212.47-17.88-220.64-22.32-1.33-.72-5.36-2.92-10.92-185.85-2.75-90.28-4.52-181.19-4.54-182.1L41.36,24.36c0-1.85.24-6.73,115.39-10.91,56.8-2.06,114.34-2.91,114.91-2.92h303.88l-2.36,16.47,6.12,2.37v.34s-1.27,589.63-1.27,589.63l-.47.03-310.05,20.25ZM42.19,28.32l-9.78,221.04c1.95,100.55,8.43,362.57,14.94,367.06,7.98,4.34,218.05,22.02,220.17,22.2l309.51-20.22,1.27-588.35-13.38-5.18-289.35,4.26-219.91,5.74h0c-.15,0-10.45-.09-13.47-6.56ZM271.67,11.53c-.57,0-58.1.86-114.89,2.92-103.27,3.75-114.42,8.19-114.42,9.92,0,9.4,13.15,9.5,13.29,9.5l219.91-5.74,289.55-4.26,7.12,2.76,2.17-15.1h-302.72Z"/>
  <polygon class="st16" points="569.19 33.51 564.57 24.6 565.45 24.14 569.68 32.29 578.64 29.24 578.96 30.18 569.19 33.51"/>
  <path class="st16" d="M578.79,551.64h-1s6.12-532.61,6.12-532.61l-403.92,1.02c-50.71.77-126.81,3.14-130.23,6.49,2.46,3.75,12.87,1.06,16.7-.31l.34.94c-.6.21-14.72,5.18-17.96-.21-.16-.26-.16-.56-.02-.83,2.77-4.97,118.03-6.88,131.16-7.08l404.94-1.02-6.13,533.61Z"/>
  <polygon class="st16" points="338.3 635.88 338.29 634.88 585.96 631.82 582.9 161.51 583.9 161.5 586.97 632.8 586.47 632.81 338.3 635.88"/>
  <polygon class="st16" points="585.5 623.62 585.38 622.62 593.05 621.66 592.09 613.99 583.92 24.66 584.92 24.64 593.09 613.92 594.17 622.53 585.5 623.62"/>
  <polygon class="st16" points="586.59 627.69 586.33 626.72 597.18 623.76 589.03 409.69 590.03 409.65 598.21 624.52 586.59 627.69"/>
  <rect class="st16" x="79.91" y="23.64" width="172.6" height="1" transform="translate(-.14 .97) rotate(-.34)"/>
  <polygon class="st16" points="568.58 17.5 567.58 17.5 567.58 14.94 242.29 12.9 242.3 11.9 568.58 13.94 568.58 17.5"/>
  <polygon class="st16" points="588.5 284.57 587.5 284.57 588 15.91 574.66 14.43 574.77 13.43 589.01 15.01 589.01 15.46 588.5 284.57"/>
  <path class="st16" d="M589,101.29l-1-.09c3.15-36.2,6.33-59.9,9.21-68.54,1.55-4.64,3.67-6.59,5.19-7.41l-14.52-3.18.21-.98,20.86,4.56h-4.62s-3.78.15-6.16,7.32c-1.99,5.97-5.2,22.68-9.17,68.31Z"/>
  <g>
    <path class="st16" d="M361.34,61.91c.24.19.66.44,1.24.76.59.32,1.15.48,1.68.47.53,0,.8-.22.8-.63,0-.19-.08-.35-.23-.5-.15-.14-.43-.31-.83-.49-.4-.18-.71-.33-.91-.43-.2-.1-.47-.28-.81-.52-.34-.24-.59-.49-.77-.76-.51-.71-.77-1.62-.78-2.73-.01-1.11.39-2.04,1.21-2.81.82-.77,1.89-1.16,3.22-1.17.9,0,1.74.08,2.51.27.77.19,1.17.44,1.2.75,0,.04,0,.08,0,.11,0,.44-.13,1-.4,1.67s-.46,1.05-.57,1.13c-.81-.41-1.53-.61-2.16-.6-.63,0-.95.24-.95.69,0,.28.24.52.71.73.1.05.25.12.44.2.19.09.41.19.65.3.25.12.51.27.8.45.28.18.59.42.92.72.67.62,1.01,1.45,1.02,2.48.01,1.35-.35,2.45-1.08,3.31-.73.86-1.87,1.31-3.42,1.35-.75,0-1.44-.05-2.05-.17-.61-.12-1.15-.36-1.6-.72-.46-.36-.69-.8-.69-1.31,0-.52.08-1.03.27-1.54.18-.51.38-.85.59-1.01Z"/>
    <path class="st16" d="M374.9,69.81c0,.09-.54.14-1.61.15-1.08.01-1.61-.03-1.61-.12l-.09-9.71h-.64c-.3,0-.51-.27-.63-.82-.04-.18-.06-.4-.06-.68,0-.28.08-.6.25-.98.25-.56.65-.84,1.2-.84.36,0,.7.08,1.01.24.31.17.52.32.65.47.12.14.18.23.18.25.84-.66,1.74-1,2.73-1.01.98,0,1.83.36,2.54,1.12.71.75,1.07,1.93,1.09,3.52.01,1.59-.33,2.83-1.02,3.71s-1.58,1.33-2.67,1.34c-.49,0-.94-.02-1.34-.06l.03,3.43ZM375.58,60.08c-.21,0-.42.07-.62.21l.03,3.34c.21.02.39.03.52.03.13,0,.24,0,.31,0,.52-.05.77-.72.75-1.99-.01-1.07-.34-1.6-1-1.59Z"/>
    <path class="st16" d="M382.09,65.2c-.79-.86-1.2-2.06-1.21-3.59-.01-1.53.37-2.74,1.14-3.61.78-.88,1.83-1.32,3.17-1.33,1.33-.01,2.39.41,3.18,1.27s1.19,2.06,1.2,3.59c.01,1.53-.36,2.74-1.14,3.61-.77.88-1.82,1.32-3.16,1.33s-2.4-.41-3.19-1.27ZM385.23,59.81c-.71,0-1.06.59-1.05,1.75.01,1.16.37,1.73,1.08,1.72s1.06-.59,1.05-1.75c-.01-1.16-.37-1.73-1.08-1.72Z"/>
    <path class="st16" d="M395.08,66.17c0,.09-.57.14-1.71.15-1.14-.01-1.72-.06-1.72-.13l-.06-6.26h-.51c-.2,0-.36-.11-.48-.36s-.18-.55-.19-.91c-.01-1.36.38-2.04,1.19-2.05.57,0,1.04.16,1.42.5.38.34.57.73.58,1.17.26-.52.61-.93,1.05-1.25.44-.31.9-.47,1.36-.47.73,0,1.17.18,1.33.55.04.1.06.25.06.44,0,.2-.05.54-.17,1.05s-.23.87-.36,1.1c-.12.23-.2.34-.22.34-.03,0-.14-.05-.35-.14-.21-.09-.39-.14-.56-.14-.48,0-.71.38-.71,1.14l.05,5.26Z"/>
    <path class="st16" d="M402.76,66c0,.15-.53.23-1.58.24-1.26-.04-1.89-.11-1.89-.23l-.06-6.68h-.96c-.25.01-.38-.42-.39-1.29,0-.23.02-.5.06-.83.04-.33.13-.49.27-.49h1s-.02-1.67-.02-1.67c0-.25.53-.38,1.59-.39,1.06,0,1.59.09,1.6.29v1.21s.04.53.04.53l1.6-.02c.21,0,.32.44.33,1.32,0,.88-.09,1.32-.31,1.32h-1.34s.06,6.69.06,6.69Z"/>
    <path class="st16" d="M405.72,62.69c1.02.61,1.83.91,2.42.9.38,0,.56-.14.56-.4,0-.19-.33-.43-.99-.73-1.58-.63-2.37-1.67-2.39-3.13,0-.93.32-1.64,1-2.14.67-.5,1.49-.75,2.44-.76.95,0,1.75.08,2.42.28.66.2.99.46,1,.78,0,.28-.13.64-.4,1.1-.27.46-.45.7-.55.74-.54-.3-1.13-.44-1.76-.44-.34,0-.51.12-.51.36,0,.15.07.28.2.38.13.11.38.24.73.39.35.15.65.29.88.42.23.12.5.3.79.52.61.47.92,1.09.92,1.86,0,1.01-.32,1.82-.98,2.45-.66.63-1.66.95-3.01.96-.89,0-1.71-.13-2.44-.43-.73-.29-1.1-.71-1.11-1.23,0-.35.08-.72.24-1.11.17-.39.34-.65.51-.78Z"/>
    <path class="st16" d="M423.03,56.69l.02-.19c0-.31-.11-.56-.32-.75s-.46-.28-.77-.28c-.3,0-.55.11-.75.31-.2.2-.3.48-.29.83,0,.96.68,1.43,2.03,1.41.3,0,.64-.03,1.02-.09,2.47-.34,3.72-.51,3.75-.51.35,0,.53.35.54,1.07,0,.58-.11,1.15-.34,1.72l-1.92.25c.33.79.5,1.5.51,2.15,0,.99-.36,1.82-1.12,2.48-.75.66-1.86,1-3.31,1.01s-2.6-.33-3.45-1.03c-.85-.7-1.28-1.61-1.29-2.72-.01-1.11.51-2.07,1.58-2.87-.8-.87-1.21-1.89-1.22-3.04-.01-1.16.38-2.09,1.18-2.81.8-.72,1.84-1.08,3.12-1.1,1.28-.01,2.3.29,3.05.91.75.62,1.14,1.47,1.15,2.53,0,.21-.2.42-.61.63-.41.21-.89.31-1.46.32s-.93-.07-1.1-.23ZM421,60.56c-.14.37-.2.69-.2.97s.05.53.14.74c.21.49.61.73,1.21.72.43,0,.74-.16.93-.47.19-.31.29-.7.28-1.16,0-.21-.01-.37-.02-.48-.01-.11-.02-.17-.02-.2-.43.08-.85.12-1.26.13s-.77-.08-1.06-.25Z"/>
    <path class="st16" d="M434.05,61.21c.24.19.66.44,1.24.76.59.32,1.15.48,1.68.47.53,0,.8-.22.79-.63,0-.19-.08-.35-.23-.5s-.43-.31-.83-.49c-.4-.18-.71-.33-.91-.43-.2-.1-.47-.28-.81-.52-.34-.24-.59-.49-.77-.76-.51-.71-.77-1.62-.78-2.73-.01-1.11.39-2.04,1.21-2.81.82-.77,1.89-1.16,3.22-1.17.9,0,1.74.08,2.51.27.77.19,1.17.44,1.19.75,0,.04,0,.08,0,.11,0,.44-.13,1-.4,1.67-.27.68-.46,1.05-.57,1.13-.81-.41-1.53-.61-2.17-.6-.63,0-.95.24-.95.69,0,.28.24.52.71.73.1.05.25.12.44.2.19.09.41.19.65.3.25.12.51.27.8.44.28.18.59.42.92.72.67.62,1.01,1.45,1.02,2.48.01,1.35-.35,2.45-1.08,3.31-.73.86-1.87,1.31-3.42,1.35-.75,0-1.44-.05-2.05-.17-.61-.12-1.14-.36-1.6-.72-.46-.36-.69-.8-.69-1.31,0-.52.08-1.03.27-1.54.18-.51.38-.85.59-1.01Z"/>
    <path class="st16" d="M446.57,61.01c.01,1.23.48,1.84,1.41,1.83.6,0,1.1-.13,1.51-.37.19,0,.35.32.47.97.13.65.19,1.09.19,1.32,0,.23-.03.39-.09.46-.66.42-1.57.64-2.73.65-1.16.01-2.14-.41-2.96-1.26s-1.24-2.02-1.25-3.51.37-2.7,1.16-3.62,1.85-1.39,3.17-1.41c1.33-.01,2.25.3,2.77.93.11.14.17.34.18.61,0,.27-.04.6-.14.99-.22.81-.51,1.27-.87,1.4-.05.01-.12.02-.22.02s-.21-.07-.35-.22c-.49-.49-.89-.73-1.19-.72-.3,0-.55.16-.76.46-.21.3-.31.79-.31,1.47Z"/>
    <path class="st16" d="M452.33,64.52c-.79-.86-1.2-2.06-1.21-3.59-.01-1.53.37-2.74,1.14-3.61.78-.88,1.83-1.32,3.17-1.33,1.33-.01,2.39.41,3.18,1.27.79.86,1.19,2.06,1.2,3.59.01,1.53-.36,2.74-1.13,3.61-.77.88-1.82,1.32-3.16,1.33s-2.4-.41-3.19-1.27ZM455.47,59.14c-.71,0-1.06.59-1.05,1.75.01,1.16.37,1.73,1.08,1.72s1.06-.59,1.05-1.75c-.01-1.16-.37-1.73-1.08-1.72Z"/>
    <path class="st16" d="M465.32,65.49c0,.09-.57.14-1.71.15-1.14-.01-1.72-.06-1.72-.13l-.06-6.26h-.51c-.2,0-.36-.11-.48-.36s-.18-.55-.19-.91c-.01-1.36.38-2.04,1.19-2.05.57,0,1.04.16,1.42.5.38.34.57.73.58,1.17.26-.52.61-.93,1.05-1.25.44-.31.9-.47,1.36-.47.73,0,1.17.18,1.33.55.04.1.06.25.06.44,0,.2-.05.54-.17,1.05s-.23.87-.36,1.1c-.12.23-.2.34-.22.34-.03,0-.14-.05-.35-.14-.21-.09-.39-.14-.56-.14-.48,0-.71.38-.71,1.14l.05,5.26Z"/>
    <path class="st16" d="M475.79,64.9c-.79.47-1.8.72-3.05.73-1.24.01-2.3-.4-3.16-1.24-.86-.84-1.3-2.01-1.32-3.51-.02-1.5.39-2.72,1.2-3.64.81-.93,1.85-1.39,3.11-1.41,1.26-.01,2.23.3,2.92.93.69.63,1.04,1.41,1.05,2.33.02,2.04-1.14,3.07-3.48,3.09h-1.3c0,.39.11.65.32.79.21.14.51.21.92.21.88,0,1.71-.22,2.5-.63.01-.01.07.07.17.26.31.54.46.99.47,1.36,0,.37-.11.61-.35.73ZM473.38,59.47c0-.53-.27-.79-.78-.78-.24,0-.44.08-.61.22-.17.15-.25.36-.25.63v.58s1.02-.01,1.02-.01c.41,0,.62-.22.62-.65Z"/>
    <path class="st16" d="M478.19,61.99c1.03.61,1.83.91,2.42.9.38,0,.57-.14.56-.4,0-.19-.33-.43-.99-.73-1.58-.63-2.37-1.67-2.39-3.13,0-.93.32-1.64,1-2.14.67-.5,1.48-.75,2.43-.76.95,0,1.75.08,2.42.28s.99.46,1,.78c0,.28-.13.64-.4,1.1-.27.46-.45.7-.55.74-.54-.3-1.13-.44-1.76-.44-.34,0-.51.12-.51.36,0,.15.07.28.2.38.13.11.38.24.73.39.35.15.65.29.88.42.23.12.5.3.79.52.61.47.92,1.09.92,1.86,0,1.01-.32,1.82-.98,2.45s-1.66.95-3.01.96c-.89,0-1.71-.13-2.44-.43-.73-.29-1.1-.71-1.11-1.23,0-.35.08-.72.24-1.11.17-.39.34-.65.51-.78Z"/>
    <path class="st16" d="M492.95,65.3c0,.09-.59.14-1.78.15s-1.78-.02-1.78-.1l-.03-3.39c0-.11.59-.18,1.78-.19s1.78.01,1.78.08l.03,3.45Z"/>
    <path class="st16" d="M500.81,65.22c0,.09-.59.14-1.78.15-1.19.01-1.78-.02-1.78-.1l-.03-3.39c0-.11.59-.18,1.78-.19,1.19-.01,1.78.01,1.78.08l.03,3.45Z"/>
    <path class="st16" d="M508.68,65.15c0,.09-.59.14-1.78.15s-1.78-.02-1.78-.1l-.03-3.39c0-.11.59-.18,1.78-.19s1.78.01,1.78.08l.03,3.45Z"/>
    <path class="st16" d="M516.54,65.07c0,.09-.59.14-1.78.15-1.19.01-1.78-.02-1.78-.1l-.03-3.39c0-.11.59-.18,1.78-.19,1.19-.01,1.78.01,1.78.08l.03,3.45Z"/>
    <path class="st16" d="M524.4,64.99c0,.09-.59.14-1.78.15-1.19.01-1.78-.02-1.78-.1l-.03-3.39c0-.11.59-.18,1.78-.19,1.19-.01,1.78.01,1.78.08l.03,3.45Z"/>
    <path class="st16" d="M532.27,64.92c0,.09-.59.14-1.78.15-1.19.01-1.78-.02-1.78-.1l-.03-3.39c0-.11.59-.18,1.78-.19,1.19-.01,1.78.01,1.78.08l.03,3.45Z"/>
    <path class="st16" d="M546.29,60.75c.01,1.23-.42,2.24-1.3,3.03s-2.06,1.19-3.53,1.2c-1.48.01-2.64-.35-3.5-1.09-.86-.74-1.29-1.72-1.3-2.93-.01-1.21.59-2.3,1.8-3.25-.86-.73-1.3-1.62-1.31-2.67-.01-1.04.39-1.91,1.2-2.6s1.85-1.04,3.12-1.05c1.27-.01,2.29.3,3.06.92.77.63,1.15,1.42,1.15,2.38s-.39,1.84-1.19,2.62c.52.37.95.86,1.29,1.45.34.59.51,1.25.52,1.97ZM540.39,60.63c0,.36.12.66.34.87.22.22.5.32.82.32s.59-.12.8-.34.31-.52.3-.88c0-.68-.44-1.23-1.32-1.67-.64.4-.95.96-.95,1.69ZM542.37,55.28c0-.28-.1-.51-.3-.69-.2-.19-.41-.28-.65-.28-.64,0-.97.32-.99.93,0,.57.44,1.1,1.32,1.59.42-.48.63-1,.63-1.55Z"/>
  </g>
  <path class="st5" d="M68.52,90.82l-.03-1c1.38-.04,142.34-3.85,230.54-5.36,87.39-1.49,245.3-2.27,251.98-2.3l.02,1h-.01c-6.68.03-164.58.8-251.96,2.3-88.2,1.51-229.15,5.32-230.53,5.36Z"/>
  <path class="st5" d="M68.5,87.32l-.08-1,.02-1c5.82-.16,143.55-3.87,230.53-5.36,87.44-1.49,245.34-2.27,252.02-2.3l.02,2c-6.69.03-164.58.8-252.01,2.3-86.97,1.49-224.69,5.2-230.51,5.36Z"/>
  <g class="st21">
    <g>
      <rect class="st15" x="37.53" y="59.76" width="547.29" height="257.03" transform="translate(-.88 1.46) rotate(-.27)"/>
      <g>
        <ellipse class="st22" cx="196.4" cy="135.92" rx="20.11" ry="24.92" transform="translate(-.63 .92) rotate(-.27)"/>
        <ellipse class="st4" cx="232.23" cy="132.26" rx="20.11" ry="24.92" transform="translate(-.62 1.09) rotate(-.27)"/>
        <ellipse class="st22" cx="366.84" cy="127.26" rx="20.11" ry="24.92" transform="translate(-.59 1.72) rotate(-.27)"/>
        <ellipse class="st2" cx="284.68" cy="132.01" rx="20.11" ry="24.92" transform="translate(-.62 1.34) rotate(-.27)"/>
        <ellipse class="st19" cx="341.52" cy="133.5" rx="20.11" ry="24.92" transform="translate(-.62 1.6) rotate(-.27)"/>
        <ellipse class="st6" cx="390.48" cy="135.01" rx="20.11" ry="24.92" transform="translate(-.63 1.83) rotate(-.27)"/>
        <ellipse class="st4" cx="283.31" cy="212.89" rx="20.11" ry="24.92" transform="translate(-.99 1.33) rotate(-.27)"/>
        <ellipse class="st4" cx="534.34" cy="257.11" rx="20.11" ry="24.92" transform="translate(-1.2 2.51) rotate(-.27)"/>
        <ellipse class="st19" cx="340.15" cy="214.37" rx="20.11" ry="24.92" transform="translate(-1 1.6) rotate(-.27)"/>
        <ellipse class="st6" cx="517.62" cy="181.46" rx="20.11" ry="24.92" transform="translate(-.84 2.43) rotate(-.27)"/>
        <ellipse class="st22" cx="433.31" cy="133.07" rx="20.11" ry="24.92" transform="translate(-.62 2.03) rotate(-.27)"/>
        <ellipse class="st6" cx="237.09" cy="236.27" rx="20.11" ry="24.92" transform="translate(-1.1 1.11) rotate(-.27)"/>
        <ellipse class="st4" cx="145.35" cy="249.82" rx="20.11" ry="24.92" transform="translate(-1.17 .68) rotate(-.27)"/>
        <ellipse class="st19" cx="272.97" cy="244.85" rx="20.11" ry="24.92" transform="translate(-1.14 1.28) rotate(-.27)"/>
        <ellipse class="st22" cx="321.94" cy="246.37" rx="20.11" ry="24.92" transform="translate(-1.15 1.51) rotate(-.27)"/>
        <ellipse class="st4" cx="364.77" cy="244.42" rx="20.11" ry="24.92" transform="translate(-1.14 1.71) rotate(-.27)"/>
        <ellipse class="st22" cx="162.61" cy="201.65" rx="20.11" ry="24.92" transform="translate(-.94 .76) rotate(-.27)"/>
        <ellipse class="st4" cx="458.68" cy="134.69" rx="20.11" ry="24.92" transform="translate(-.63 2.15) rotate(-.27)"/>
        <ellipse class="st19" cx="403.75" cy="167.3" rx="20.11" ry="24.92" transform="translate(-.78 1.89) rotate(-.27)"/>
        <ellipse class="st6" cx="504.95" cy="121.36" rx="20.11" ry="24.92" transform="translate(-.56 2.37) rotate(-.27)"/>
        <ellipse class="st19" cx="200.08" cy="175.25" rx="20.11" ry="24.92" transform="translate(-.82 .94) rotate(-.27)"/>
        <ellipse class="st2" cx="156.29" cy="157.97" rx="20.11" ry="24.92" transform="translate(-.74 .73) rotate(-.27)"/>
        <ellipse class="st22" cx="261.56" cy="173.23" rx="20.11" ry="24.92" transform="translate(-.81 1.23) rotate(-.27)"/>
        <ellipse class="st6" cx="306.69" cy="163.38" rx="20.11" ry="24.92" transform="translate(-.76 1.44) rotate(-.27)"/>
        <ellipse class="st6" cx="255.31" cy="206.46" rx="20.11" ry="24.92" transform="translate(-.96 1.2) rotate(-.27)"/>
        <ellipse class="st6" cx="126.49" cy="143.25" rx="20.11" ry="24.92" transform="translate(-.67 .59) rotate(-.27)"/>
        <ellipse class="st2" cx="228.22" cy="210.09" rx="20.11" ry="24.92" transform="translate(-.98 1.07) rotate(-.27)"/>
        <ellipse class="st2" cx="537.22" cy="103.73" rx="20.11" ry="24.92" transform="translate(-.48 2.52) rotate(-.27)"/>
        <ellipse class="st19" cx="129.39" cy="201.81" rx="20.11" ry="24.92" transform="translate(-.94 .61) rotate(-.27)"/>
        <ellipse class="st22" cx="80.27" cy="167.07" rx="20.11" ry="24.92" transform="translate(-.78 .38) rotate(-.27)"/>
        <ellipse class="st4" cx="116.1" cy="163.4" rx="20.11" ry="24.92" transform="translate(-.76 .55) rotate(-.27)"/>
        <ellipse class="st6" cx="100.01" cy="274.51" rx="20.11" ry="24.92" transform="translate(-1.29 .47) rotate(-.27)"/>
        <ellipse class="st4" cx="472.32" cy="268.22" rx="20.11" ry="24.92" transform="translate(-1.25 2.22) rotate(-.27)"/>
        <ellipse class="st19" cx="156.11" cy="119.5" rx="20.11" ry="24.92" transform="translate(-.56 .73) rotate(-.27)"/>
        <ellipse class="st22" cx="469.42" cy="187.97" rx="20.11" ry="24.92" transform="translate(-.88 2.2) rotate(-.27)"/>
        <ellipse class="st19" cx="83.95" cy="206.39" rx="20.11" ry="24.92" transform="translate(-.97 .4) rotate(-.27)"/>
        <ellipse class="st2" cx="432.71" cy="189.9" rx="20.11" ry="24.92" transform="translate(-.89 2.03) rotate(-.27)"/>
        <ellipse class="st22" cx="135.89" cy="283.09" rx="20.11" ry="24.92" transform="translate(-1.33 .64) rotate(-.27)"/>
        <ellipse class="st6" cx="476.27" cy="227.86" rx="20.11" ry="24.92" transform="translate(-1.06 2.23) rotate(-.27)"/>
        <ellipse class="st2" cx="112.09" cy="241.23" rx="20.11" ry="24.92" transform="translate(-1.13 .53) rotate(-.27)"/>
        <ellipse class="st19" cx="313.87" cy="203.57" rx="20.11" ry="24.92" transform="translate(-.95 1.47) rotate(-.27)"/>
        <ellipse class="st2" cx="374.07" cy="177.93" rx="20.11" ry="24.92" transform="translate(-.83 1.75) rotate(-.27)"/>
        <ellipse class="st19" cx="309.08" cy="113.54" rx="20.11" ry="24.92" transform="translate(-.53 1.45) rotate(-.27)"/>
        <ellipse class="st6" cx="440.94" cy="266.79" rx="20.11" ry="24.92" transform="translate(-1.25 2.07) rotate(-.27)"/>
        <ellipse class="st2" cx="413.8" cy="259.05" rx="20.11" ry="24.92" transform="translate(-1.21 1.94) rotate(-.27)"/>
        <ellipse class="st22" cx="410.1" cy="217.1" rx="20.11" ry="24.92" transform="translate(-1.01 1.92) rotate(-.27)"/>
        <ellipse class="st4" cx="301.11" cy="280.13" rx="20.11" ry="24.92" transform="translate(-1.31 1.41) rotate(-.27)"/>
        <ellipse class="st4" cx="285.69" cy="159.98" rx="20.11" ry="24.92" transform="translate(-.75 1.34) rotate(-.27)"/>
        <ellipse class="st19" cx="346.58" cy="279.91" rx="20.11" ry="24.92" transform="translate(-1.31 1.63) rotate(-.27)"/>
        <ellipse class="st19" cx="304.76" cy="239.85" rx="20.11" ry="24.92" transform="translate(-1.12 1.43) rotate(-.27)"/>
        <ellipse class="st6" cx="376.87" cy="214.2" rx="20.11" ry="24.92" transform="translate(-1 1.77) rotate(-.27)"/>
        <ellipse class="st6" cx="211.07" cy="280.98" rx="20.11" ry="24.92" transform="translate(-1.31 .99) rotate(-.27)"/>
        <ellipse class="st4" cx="185.67" cy="272.36" rx="20.11" ry="24.92" transform="translate(-1.27 .87) rotate(-.27)"/>
        <ellipse class="st19" cx="232.36" cy="159.8" rx="20.11" ry="24.92" transform="translate(-.75 1.09) rotate(-.27)"/>
        <ellipse class="st19" cx="549.76" cy="167.93" rx="20.11" ry="24.92" transform="translate(-.78 2.58) rotate(-.27)"/>
        <ellipse class="st22" cx="270.63" cy="118.96" rx="20.11" ry="24.92" transform="translate(-.55 1.27) rotate(-.27)"/>
        <ellipse class="st22" cx="542.14" cy="221.73" rx="20.11" ry="24.92" transform="translate(-1.03 2.54) rotate(-.27)"/>
        <ellipse class="st4" cx="343.45" cy="171.95" rx="20.11" ry="24.92" transform="translate(-.8 1.61) rotate(-.27)"/>
        <ellipse class="st4" cx="209.37" cy="104.39" rx="20.11" ry="24.92" transform="translate(-.49 .98) rotate(-.27)"/>
        <ellipse class="st22" cx="187.29" cy="244.38" rx="20.11" ry="24.92" transform="translate(-1.14 .88) rotate(-.27)"/>
        <ellipse class="st19" cx="387.58" cy="261.8" rx="20.11" ry="24.92" transform="translate(-1.22 1.82) rotate(-.27)"/>
        <ellipse class="st2" cx="250.39" cy="276.43" rx="20.11" ry="24.92" transform="translate(-1.29 1.18) rotate(-.27)"/>
        <ellipse class="st19" cx="198.53" cy="217.22" rx="20.11" ry="24.92" transform="translate(-1.02 .93) rotate(-.27)"/>
        <ellipse class="st6" cx="507.4" cy="271.73" rx="20.11" ry="24.92" transform="translate(-1.27 2.38) rotate(-.27)"/>
        <ellipse class="st4" cx="441.63" cy="229.2" rx="20.11" ry="24.92" transform="translate(-1.07 2.07) rotate(-.27)"/>
        <ellipse class="st19" cx="95.84" cy="131.15" rx="20.11" ry="24.92" transform="translate(-.61 .45) rotate(-.27)"/>
        <ellipse class="st22" cx="484.79" cy="110.97" rx="20.11" ry="24.92" transform="translate(-.51 2.27) rotate(-.27)"/>
        <ellipse class="st19" cx="494.96" cy="208.23" rx="20.11" ry="24.92" transform="translate(-.97 2.32) rotate(-.27)"/>
        <ellipse class="st22" cx="81.69" cy="97.99" rx="20.11" ry="24.92" transform="translate(-.46 .38) rotate(-.27)"/>
        <ellipse class="st2" cx="492.87" cy="155.52" rx="20.11" ry="24.92" transform="translate(-.72 2.31) rotate(-.27)"/>
        <ellipse class="st19" cx="447.19" cy="108.52" rx="20.11" ry="24.92" transform="translate(-.5 2.1) rotate(-.27)"/>
        <ellipse class="st19" cx="520.79" cy="143.15" rx="20.11" ry="24.92" transform="translate(-.67 2.44) rotate(-.27)"/>
        <ellipse class="st6" cx="451.81" cy="162.27" rx="20.11" ry="24.92" transform="translate(-.76 2.12) rotate(-.27)"/>
        <ellipse class="st2" cx="415.7" cy="105.17" rx="20.11" ry="24.92" transform="translate(-.49 1.95) rotate(-.27)"/>
        <ellipse class="st2" cx="501.94" cy="224.54" rx="20.11" ry="24.92" transform="translate(-1.05 2.35) rotate(-.27)"/>
        <rect class="st7" x="26.69" y="234.6" width="577.01" height="131.14" transform="translate(-1.4 1.48) rotate(-.27)"/>
      </g>
      <g>
        <polygon class="st11" points="187.11 291.36 214.92 276.69 272.77 270.12 333.26 266.77 373.45 253.91 437.91 202.34 454.6 183.91 472.08 175.89 480.13 179.02 484.84 182.43 495.11 189.24 495.13 197.73 513.17 235.91 522.37 241.82 516.16 243.36 502.13 233.72 501.57 245.17 490.58 251.16 474.8 238.34 459.63 222.25 453.99 239.9 441.61 281.99 443.76 354.11 439.61 498.48 420.82 347.7 393.68 363.01 363.61 511.13 361.07 358.2 330.74 379.41 265.9 399.73 282.9 510.83 228.09 394.99 189.26 518.49 193.47 385 173.47 358.4 170.56 321.5 187.11 291.36"/>
        <polygon class="st12" points="493.7 266.53 512.28 268.58 521.28 260 520.32 249.31 522.37 241.82 511.26 238.65 505.72 238.72 507.77 246.18 501.89 244.3 490.58 251.16 489.68 257.46 489.44 263.98 493.7 266.53"/>
        <path class="st0" d="M507.26,269.11c-6.48.08-15.52-.8-17.61-3.94-2.48-3.72.05-9.84.89-11.65-4.23-2.9-35.54-22.63-37.34-31.43-1.87-9.13,1.33-22.74,1.4-23.28l1.26.15c-.02.13-1.56,13.12.27,22.04,1.8,8.77,35.24,31.55,35.58,31.78l.47.32-.26.5c-.04.07-3.67,7.18-1.21,10.87,2.45,3.67,19.17,3.87,22.51,2.85,3.08-.94,8.34-6.73,8.29-9.1-.06-2.56-2.49-8.74-2.52-8.8l-.15-.37.27-.29s2.94-3.29,2.03-6.6c-.89-3.26-6.28-4.16-6.33-4.17l-.33-.05-20.02-42,.13-.27s3.11-2.71.51-6.42c-2.48-3.55-6-2.62-7.72-2.96l-.28-.05-2.26-3.8,1.09-.65,1.97,3.32c1.4.3,6.34,1.76,7.8,4.31,1.4,2.45.57,5.54.17,6.52l19.48,40.87c1.32.27,6.05,1.48,7.02,5.03.92,3.37-1.27,6.5-2.06,7.48.54,1.4,2.41,6.45,2.47,8.88.07,3.16-5.8,9.31-9.19,10.35-1,.31-3.41.54-6.33.57Z"/>
        <path class="st14" d="M514.4,250.45c-1.84.02-3.9-1.3-4.03-1.38l.69-1.07c.87.56,3.55,1.89,4.42.67,1.24-1.75,1.54-4.08.68-5.31-.64-.91-3.15-1.91-4.59-2.33l.36-1.22c.42.12,4.18,1.25,5.28,2.83,1.17,1.67.87,4.58-.68,6.78-.54.76-1.31,1.03-2.12,1.04Z"/>
        <path class="st14" d="M500.27,258.25c-.4,0-.81-.02-1.23-.08-3.19-.45-3.45-3.98-3.59-5.87l-.04-.51c-.2-2.23,3.22-3.4,3.61-3.53l.39,1.21c-.93.3-2.82,1.24-2.73,2.2l.04.53c.17,2.32.49,4.42,2.5,4.71,1.99.28,4.14-.42,5-1.23.23-.22.28-.37.28-.42-.07-.78-1.28-3-2.04-4.22l1.08-.67c.35.57,2.11,3.47,2.22,4.78.03.35-.07.88-.68,1.45-.9.85-2.78,1.62-4.83,1.64Z"/>
        <ellipse class="st14" cx="488.54" cy="192.91" rx="4.9" ry="5" transform="translate(-2.34 6.04) rotate(-.71)"/>
        <ellipse class="st14" cx="466.97" cy="201.76" rx="6.03" ry="5.84" transform="translate(-2.45 5.78) rotate(-.71)"/>
        <ellipse class="st7" cx="465.95" cy="200.79" rx="1.79" ry="1.73" transform="translate(-2.44 5.76) rotate(-.71)"/>
        <ellipse class="st7" cx="489.31" cy="191.09" rx="1.79" ry="1.73" transform="translate(-2.32 6.05) rotate(-.71)"/>
        <path class="st0" d="M189.76,520.39l-1.93.06c.05-1.19,5.26-119.15,2.78-130.48-1.13-5.18-3.31-7.92-6.06-11.4-3.24-4.08-7.27-9.16-11.08-20.17-3.97-11.47-3.9-27.8.17-41.62,3.7-12.53,12.33-29.36,32.49-38.36,20.56-9.18,55.65-9.62,86.61-10,23.02-.29,44.77-.56,57.49-4.32,19.86-5.87,58.47-40.39,84.02-63.24,13.18-11.78,23.58-21.09,27.26-22.82,10.87-5.12,15.74-3.11,15.95-3.03l-.5,1.17s-4.64-1.82-14.9,3.01c-3.51,1.65-13.85,10.9-26.95,22.61-27.17,24.29-64.37,57.56-84.51,63.51-12.89,3.81-34.72,4.08-57.83,4.37-30.84.39-65.79.82-86.1,9.89-35.74,15.96-38.47,59.64-31.97,78.4,3.74,10.81,7.69,15.79,10.87,19.8,2.75,3.46,5.87,6.73,7.06,12.2,2.26,10.37-2.37,104.19-3.32,126.14l41.65-122.52.56.13c.31.07,31.1,5.85,63.69-2.6,33.93-8.8,67.72-29.57,68.05-29.79l1-.68-1.72,153.36,28.28-150.82,37.96-17.91,9.21,148.72,4.51-139.85c-.05-.36-5.52-45.79-.88-72.18,4.64-26.37,15.83-50.68,15.94-50.92l1.16.54c-.11.24-11.24,24.4-15.85,50.61-4.61,26.19.84,71.44.89,71.9l-4.73,164.5-1.27.03-11.81-170.67-34.15,20.29-29.35,152.91-1.26-.13,1.31-155.65c-5.83,3.78-36.07,22.8-66.9,30.8-30.47,7.91-59.79,2.29-64.19,1.36l-41.66,122.86Z"/>
        <polygon class="st17" points="455.98 189.86 436.9 176.14 434.61 161.18 445.28 169.86 468.38 188.36 455.98 189.86"/>
        <path class="st0" d="M457.04,194.63c-.18-.15-21.17-10.19-23.66-28.52-.38-2.81.02-4.42,1.24-4.93,3.76-1.59,16.91,5.12,30.66,22.62,1.68,2.14,3.13,3.99,3.4,4.22l-.29.34-.3.77c-.31-.12.03-.74-3.81-4.54-6.1-6.05-26.17-22.75-29.16-22.24-.29.05-.86.7-.47,3.59,2.42,17.84,28.73,25.91,28.91,26.05l-6.51,2.64Z"/>
        <polygon class="st17" points="480.13 179.02 470.94 158.04 475.18 158.97 483.49 175.67 484.83 180.72 480.13 179.02"/>
        <path class="st0" d="M482.95,182.07c0-.24-3.42-18.11-9.62-24.58-.7-.74-1-.71-1-.71-1.39.59,4.6,8.66,7.79,22.24l-1.24.29c-1.42-6.03-10.27-21.96-7.16-23.65,1.06-.58,2.17.57,2.53.95,6.54,6.82,11.76,26.01,11.79,26.99l-3.09-1.52Z"/>
        <polygon class="st0" points="284.01 521.96 281.85 522.14 236.62 412.98 239.22 413.05 280.98 516.71 262.61 412.53 266.22 412.5 284.01 521.96"/>
        <polygon class="st10" points="188.47 520.48 205.93 520.14 195.87 495.86 188.47 520.48"/>
        <polygon class="st10" points="282.62 522.32 298.68 519.97 276.99 502.67 282.62 522.32"/>
        <polygon class="st10" points="361.83 521.03 382.71 524.79 363.84 498.67 361.83 521.03"/>
        <polygon class="st10" points="438.4 518.59 453.84 513.18 437 493.86 438.4 518.59"/>
        <path class="st10" d="M207.9,283.84s-37.75,17.93-46.58,40.28c-8.84,22.35-14,96.5-14,96.5l7.95-23.53,2.08,28.18,4.1-36.93,12.24,42.81s-8.58-79.74,2.86-102.44c11.44-22.71,30.66-38.24,30.66-38.24l.68-6.63Z"/>
        <polygon class="st18" points="460.39 173.19 469.74 184.39 470.97 178.73 479.39 179.91 473.89 168.48 460.39 173.19"/>
        <polygon class="st18" points="448.6 194.2 441.58 187.78 434.34 199.15 424.36 198.84 408.55 218.99 396 221.75 381.93 241.45 368.5 243.79 355.25 259.57 345.15 285.3 360.06 262.98 362.78 272.5 377.28 251.49 376.11 262.78 391.47 241.33 395.99 255.6 414.29 227.17 417.41 233.64 428.91 216.14 433.33 222.59 440.5 206.01 443.59 209.88 448.6 194.2"/>
      </g>
      <g>
        <polygon class="st13" points="367.71 212.01 398.55 258.17 403.67 251.59 385.49 202.35 369.19 199.62 367.71 212.01"/>
        <polygon class="st20" points="80.1 297.46 107.9 282.8 165.75 276.23 226.24 272.88 266.44 260.01 330.89 208.45 347.59 190.02 365.06 181.99 373.11 185.12 377.82 188.54 388.09 195.35 388.11 203.84 406.16 242.02 415.36 247.93 409.15 249.47 398.35 242.11 381.58 204.01 379.08 209.81 371.81 201.44 373.24 211.83 394.56 251.27 383.57 257.27 367.79 244.44 352.62 228.36 346.98 246 334.6 288.1 336.75 360.21 332.59 504.58 313.81 353.81 286.66 369.11 256.6 517.24 254.06 364.31 223.73 385.51 158.89 405.84 175.88 516.93 121.08 401.1 82.25 524.59 86.46 391.11 66.46 364.51 63.55 327.6 80.1 297.46"/>
        <polygon class="st12" points="386.68 272.63 405.26 274.68 414.27 266.11 413.3 255.41 415.36 247.93 404.24 244.75 398.71 244.82 400.75 252.28 394.87 250.4 383.57 257.27 382.67 263.57 382.42 270.08 386.68 272.63"/>
        <path class="st0" d="M400.25,275.22c-6.48.08-15.52-.8-17.61-3.94-2.48-3.72.05-9.84.89-11.65-4.23-2.9-35.54-22.63-37.34-31.43-1.87-9.13,1.33-22.74,1.4-23.28l1.26.15c-.02.13-1.56,13.12.27,22.04,1.8,8.77,35.24,31.55,35.58,31.78l.47.32-.26.5c-.04.07-3.67,7.18-1.21,10.87,2.45,3.67,19.17,3.87,22.51,2.85,3.08-.94,8.34-6.73,8.29-9.1-.06-2.56-2.49-8.74-2.52-8.8l-.15-.37.27-.29s2.94-3.29,2.03-6.6c-.89-3.26-6.28-4.16-6.33-4.17l-.33-.05-20.02-42,.13-.27s3.11-2.71.51-6.42-6-2.62-7.72-2.96l-.28-.05-2.26-3.8,1.09-.65,1.97,3.32c1.4.3,6.34,1.76,7.8,4.31,1.4,2.45.57,5.54.17,6.52l19.48,40.87c1.32.27,6.05,1.48,7.02,5.03.92,3.37-1.27,6.5-2.06,7.48.54,1.4,2.41,6.45,2.47,8.88.07,3.16-5.8,9.31-9.19,10.35-1,.31-3.41.54-6.33.57Z"/>
        <path class="st14" d="M407.38,256.56c-1.84.02-3.9-1.3-4.03-1.38l.69-1.07c.87.56,3.55,1.89,4.42.67,1.24-1.75,1.54-4.08.68-5.31-.64-.91-3.15-1.91-4.59-2.33l.36-1.22c.42.12,4.18,1.25,5.28,2.83,1.17,1.67.87,4.58-.68,6.78-.54.76-1.31,1.03-2.12,1.04Z"/>
        <path class="st14" d="M393.26,264.36c-.4,0-.81-.02-1.23-.08-3.19-.45-3.45-3.98-3.59-5.87l-.04-.51c-.2-2.23,3.22-3.4,3.61-3.53l.39,1.21c-.93.3-2.82,1.24-2.73,2.2l.04.53c.17,2.32.49,4.42,2.5,4.71,1.99.28,4.14-.42,5-1.23.23-.22.28-.37.28-.42-.07-.78-1.28-3-2.04-4.22l1.08-.67c.35.57,2.11,3.47,2.22,4.78.03.35-.07.88-.68,1.45-.9.85-2.78,1.62-4.83,1.64Z"/>
        <path class="st14" d="M398.83,254.07c-.06,0-.12,0-.18,0-5.27-.58-25.62-39.03-27.92-43.41l1.13-.59c11.15,21.21,24.65,43.54,26.99,42.74,2.32-2.74-8.16-27.18-15.3-41.94l1.15-.55c3.14,6.5,18.66,39.14,15.15,43.3-.26.3-.61.47-1,.47Z"/>
        <ellipse class="st14" cx="381.52" cy="199.01" rx="4.9" ry="5" transform="translate(-2.43 4.72) rotate(-.71)"/>
        <ellipse class="st14" cx="358.82" cy="207.87" rx="6.03" ry="5.84" transform="translate(-2.54 4.44) rotate(-.71)"/>
        <ellipse class="st7" cx="357.79" cy="206.9" rx="1.79" ry="1.73" transform="translate(-2.52 4.43) rotate(-.71)"/>
        <ellipse class="st7" cx="382.29" cy="197.2" rx="1.79" ry="1.73" transform="translate(-2.4 4.73) rotate(-.71)"/>
        <path class="st0" d="M82.75,526.5l-1.93.06c.05-1.19,5.26-119.15,2.78-130.48-1.13-5.18-3.31-7.92-6.06-11.4-3.24-4.08-7.27-9.16-11.08-20.17-3.97-11.47-3.9-27.8.17-41.62,3.7-12.53,12.33-29.36,32.49-38.36,20.56-9.18,55.65-9.62,86.61-10,23.02-.29,44.77-.56,57.49-4.32,19.86-5.87,58.47-40.39,84.02-63.24,13.18-11.78,23.58-21.09,27.26-22.82,10.87-5.12,15.74-3.11,15.95-3.03l-.5,1.17s-4.64-1.82-14.9,3.01c-3.51,1.65-13.85,10.9-26.95,22.61-27.17,24.29-64.37,57.56-84.51,63.51-12.89,3.81-34.72,4.08-57.83,4.37-30.84.39-65.79.82-86.1,9.89-35.74,15.96-38.47,59.64-31.97,78.4,3.74,10.81,7.69,15.79,10.87,19.8,2.75,3.46,5.87,6.73,7.06,12.2,2.26,10.37-2.37,104.19-3.32,126.14l41.65-122.52.56.13c.31.07,31.1,5.85,63.69-2.6,33.93-8.8,67.72-29.57,68.05-29.79l1-.68-1.72,153.36,28.28-150.82,37.96-17.91,9.21,148.72,4.51-139.85c-.05-.36-5.52-45.79-.88-72.18,4.64-26.37,15.83-50.68,15.94-50.92l1.16.54c-.11.24-11.24,24.4-15.85,50.61-4.61,26.19.84,71.44.89,71.9l-4.73,164.5-1.27.03-11.81-170.67-34.15,20.29-29.35,152.91-1.26-.13,1.31-155.65c-5.83,3.78-36.07,22.8-66.9,30.8-30.47,7.91-59.79,2.29-64.19,1.36l-41.66,122.86Z"/>
        <polygon class="st17" points="348.96 195.97 333.12 177.61 330.83 162.65 341.5 171.33 361.36 194.46 348.96 195.97"/>
        <path class="st0" d="M350.02,200.74c-.18-.15-17.94-14.82-20.43-33.15-.38-2.81.02-4.42,1.24-4.93,3.76-1.59,13.67,9.75,27.43,27.26,1.68,2.14,3.13,3.99,3.4,4.22l-.29.34-.3.77c-.31-.12-.47-.3-3.81-4.54-5.52-7.02-22.35-28.39-25.93-26.87-.27.12-.86.7-.47,3.59,2.42,17.84,25.5,30.54,25.67,30.69l-6.51,2.64Z"/>
        <polygon class="st17" points="373.11 185.12 368.38 160.25 372.62 161.18 377.75 181.62 377.82 186.82 373.11 185.12"/>
        <path class="st0" d="M375.93,188.18c0-.24,1.03-22.01-5.17-28.47-.7-.74-1-.71-1-.71-1.39.59.14,12.55,3.34,26.13l-1.24.29c-1.42-6.03-5.82-25.85-2.71-27.54,1.06-.58,2.17.57,2.53.95,6.54,6.82,7.31,29.9,7.34,30.88l-3.09-1.52Z"/>
        <polygon class="st0" points="176.99 528.06 174.84 528.25 129.6 419.09 132.2 419.16 173.96 522.81 155.59 418.63 159.21 418.61 176.99 528.06"/>
        <polygon class="st10" points="81.45 526.59 98.92 526.25 88.86 501.96 81.45 526.59"/>
        <polygon class="st10" points="175.6 528.43 191.67 526.08 169.98 508.77 175.6 528.43"/>
        <polygon class="st10" points="254.81 527.14 275.69 530.9 256.82 504.77 254.81 527.14"/>
        <polygon class="st10" points="331.38 524.69 346.82 519.28 329.99 499.96 331.38 524.69"/>
        <path class="st10" d="M100.89,289.95s-37.75,17.93-46.58,40.28c-8.84,22.35-14,96.5-14,96.5l7.95-23.53,2.08,28.18,4.1-36.93,12.24,42.81s-8.58-79.74,2.86-102.44c11.44-22.71,30.66-38.24,30.66-38.24l.68-6.63Z"/>
        <polygon class="st10" points="356.1 181.03 362.73 190.5 363.96 184.84 369.19 186.94 364.73 177.02 356.1 181.03"/>
        <polygon class="st10" points="341.59 200.3 334.56 193.88 327.33 205.25 317.34 204.94 301.54 225.1 288.99 227.85 274.91 247.56 261.49 249.89 248.23 265.68 238.13 291.4 253.05 269.09 255.77 278.6 270.26 257.59 269.1 268.89 284.46 247.44 288.97 261.7 307.28 233.27 310.4 239.74 321.9 222.24 326.32 228.7 333.49 212.12 336.57 215.99 341.59 200.3"/>
      </g>
      <g>
        <polygon class="st13" points="213.33 195.38 244.17 241.54 249.29 234.97 231.11 185.73 214.81 183 213.33 195.38"/>
        <polygon class="st8" points="-74.28 280.83 -46.48 266.17 11.37 259.6 71.86 256.25 112.06 243.39 176.51 191.82 193.21 173.39 210.68 165.37 218.73 168.49 223.44 171.91 233.71 178.72 233.74 187.21 251.78 225.39 260.98 231.3 254.77 232.84 243.97 225.49 226.28 190.62 223.98 195.29 215.03 193.59 222.05 198.22 240.18 234.65 229.19 240.64 213.41 227.82 198.24 211.73 192.6 229.38 180.22 271.47 182.37 343.59 178.21 487.96 159.43 337.18 132.28 352.49 102.22 500.61 99.68 347.68 69.35 368.88 4.51 389.21 21.5 500.3 -33.3 384.47 -72.13 507.97 -67.92 374.48 -87.92 347.88 -90.83 310.98 -74.28 280.83"/>
        <polygon class="st12" points="232.31 256.01 250.88 258.06 259.89 249.48 258.92 238.79 260.98 231.3 249.86 228.13 244.33 228.2 246.37 235.66 240.49 233.78 229.19 240.64 228.29 246.94 228.04 253.46 232.31 256.01"/>
        <path class="st0" d="M245.87,258.59c-6.48.08-15.52-.8-17.61-3.94-2.48-3.72.05-9.84.89-11.65-4.23-2.9-35.54-22.63-37.34-31.43-1.87-9.13,1.33-22.74,1.4-23.28l1.26.15c-.02.13-1.56,13.12.27,22.04,1.8,8.77,35.24,31.55,35.58,31.78l.47.32-.26.5c-.04.07-3.67,7.18-1.21,10.87,2.45,3.67,19.17,3.87,22.51,2.85,3.08-.94,8.34-6.73,8.29-9.1-.06-2.56-2.49-8.74-2.52-8.8l-.15-.37.27-.29s2.94-3.29,2.03-6.6c-.89-3.26-6.28-4.16-6.33-4.17l-.33-.05-20.02-42,.13-.27s3.11-2.71.51-6.42-6-2.62-7.72-2.96l-.28-.05-2.26-3.8,1.09-.65,1.97,3.32c1.4.3,6.34,1.76,7.8,4.31,1.4,2.45.57,5.54.17,6.52l19.48,40.87c1.32.27,6.05,1.48,7.02,5.03.92,3.37-1.27,6.5-2.06,7.48.54,1.4,2.41,6.45,2.47,8.88.07,3.16-5.8,9.31-9.19,10.35-1,.31-3.41.54-6.33.57Z"/>
        <path class="st14" d="M253,239.93c-1.84.02-3.9-1.3-4.03-1.38l.69-1.07c.87.56,3.55,1.89,4.42.67,1.24-1.75,1.54-4.08.68-5.31-.64-.91-3.15-1.91-4.59-2.33l.36-1.22c.42.12,4.18,1.25,5.28,2.83,1.17,1.67.87,4.58-.68,6.78-.54.76-1.31,1.03-2.12,1.04Z"/>
        <path class="st14" d="M238.88,247.73c-.4,0-.81-.02-1.23-.08-3.19-.45-3.45-3.98-3.59-5.87l-.04-.51c-.2-2.23,3.22-3.4,3.61-3.53l.39,1.21c-.93.3-2.82,1.24-2.73,2.2l.04.53c.17,2.32.49,4.42,2.5,4.71,1.99.28,4.14-.42,5-1.23.23-.22.28-.37.28-.42-.07-.78-1.28-3-2.04-4.22l1.08-.67c.35.57,2.11,3.47,2.22,4.78.03.35-.07.88-.68,1.45-.9.85-2.78,1.62-4.83,1.64Z"/>
        <path class="st14" d="M244.45,237.45c-.06,0-.12,0-.18,0-5.27-.58-18.71-32.12-21.01-36.5l1.13-.59c11.15,21.21,17.74,36.63,20.07,35.83,2.32-2.74-11.77-25.57-18.91-40.34l1.15-.55c3.14,6.5,22.27,37.54,18.76,41.69-.26.3-.61.47-1,.47Z"/>
        <ellipse class="st14" cx="227.72" cy="181.61" rx="4.9" ry="5" transform="translate(-2.22 2.82) rotate(-.71)"/>
        <ellipse class="st14" cx="204.44" cy="191.25" rx="6.03" ry="5.84" transform="translate(-2.34 2.54) rotate(-.71)"/>
        <ellipse class="st7" cx="203.41" cy="190.28" rx="1.79" ry="1.73" transform="translate(-2.33 2.52) rotate(-.71)"/>
        <ellipse class="st7" cx="228.49" cy="179.79" rx="1.79" ry="1.73" transform="translate(-2.2 2.83) rotate(-.71)"/>
        <path class="st0" d="M-71.63,509.87l-1.93.06c.05-1.19,5.26-119.15,2.78-130.48-1.13-5.18-3.31-7.92-6.06-11.4-3.24-4.08-7.27-9.16-11.08-20.17-3.97-11.47-3.9-27.8.17-41.62,3.7-12.53,12.33-29.36,32.49-38.36,20.56-9.18,55.65-9.62,86.61-10,23.02-.29,44.77-.56,57.49-4.32,19.86-5.87,58.47-40.39,84.02-63.24,13.18-11.78,23.58-21.09,27.26-22.82,10.87-5.12,15.74-3.11,15.95-3.03l-.5,1.17s-4.64-1.82-14.9,3.01c-3.51,1.65-13.85,10.9-26.95,22.61-27.17,24.29-64.37,57.56-84.51,63.51-12.89,3.81-34.72,4.08-57.83,4.37-30.84.39-65.79.82-86.1,9.89-35.74,15.96-38.47,59.64-31.97,78.4,3.74,10.81,7.69,15.79,10.87,19.8,2.75,3.46,5.87,6.73,7.06,12.2,2.26,10.37-2.37,104.19-3.32,126.14l41.65-122.52.56.13c.31.07,31.1,5.85,63.69-2.6,33.93-8.8,67.72-29.57,68.05-29.79l1-.68-1.72,153.36,28.28-150.82,37.96-17.91,9.21,148.72,4.51-139.85c-.05-.36-5.52-45.79-.88-72.18,4.64-26.37,15.83-50.68,15.94-50.92l1.16.54c-.11.24-11.24,24.4-15.85,50.61-4.61,26.19.84,71.44.89,71.9l-4.73,164.5-1.27.03-11.81-170.67-34.15,20.29-29.35,152.91-1.26-.13,1.31-155.65c-5.83,3.78-36.07,22.8-66.9,30.8-30.47,7.91-59.79,2.29-64.19,1.36l-41.66,122.86Z"/>
        <polygon class="st17" points="194.58 179.34 184.73 159.15 182.44 144.19 191.54 155.03 206.98 177.84 194.58 179.34"/>
        <path class="st0" d="M195.64,184.11c-.18-.15-11.94-16.66-14.43-34.99-.38-2.81.02-4.42,1.24-4.93,3.76-1.59,7.68,11.59,21.43,29.09,1.68,2.14,3.13,3.99,3.4,4.22l-.29.34-.3.77c-.31-.12-.47-.3-3.81-4.54-5.52-7.02-16.35-30.22-19.93-28.71-.27.12-.86.7-.47,3.59,2.42,17.84,19.5,32.38,19.68,32.52l-6.51,2.64Z"/>
        <polygon class="st17" points="218.73 168.49 219.83 143.11 224.07 144.03 223.37 164.99 223.44 170.2 218.73 168.49"/>
        <path class="st0" d="M221.55,171.55c0-.24,6.87-22.53.67-28.99-.7-.74-1-.71-1-.71-1.39.59-5.69,13.07-2.49,26.65l-1.24.29c-1.42-6.03.02-26.37,3.12-28.06,1.06-.58,2.17.57,2.53.95,6.54,6.82,1.48,30.42,1.51,31.4l-3.09-1.52Z"/>
        <polygon class="st0" points="22.62 511.44 20.46 511.62 -24.78 402.46 -22.17 402.53 19.58 506.19 1.21 402.01 4.83 401.98 22.62 511.44"/>
        <polygon class="st10" points="21.22 511.8 37.29 509.45 15.6 492.15 21.22 511.8"/>
        <polygon class="st10" points="100.43 510.51 121.31 514.27 102.44 488.15 100.43 510.51"/>
        <polygon class="st10" points="177 508.07 192.44 502.66 175.61 483.34 177 508.07"/>
        <polygon class="st1" points="202.47 165.86 208.35 173.87 210.65 169.91 214.81 170.32 212.16 162.13 202.47 165.86"/>
        <polygon class="st1" points="187.21 183.68 178.26 182.49 172.95 188.63 160.44 194.43 146.14 210.81 134.3 213 120.53 230.93 107.11 233.26 93.85 249.05 80.95 272.12 98.67 252.46 102.86 261.92 114.24 243.99 114.72 252.26 130.7 233.03 134.59 245.08 152.9 216.64 159.03 225.52 164.58 207.81 174.31 211.26 177.16 197.07 182.19 199.36 187.21 183.68"/>
      </g>
    </g>
  </g>
</svg>