<?xml version="1.0" encoding="UTF-8"?>
<svg id="Layer_1" xmlns="http://www.w3.org/2000/svg" version="1.1" viewBox="0 0 128 54">
  <!-- Generator: Adobe Illustrator 30.5.1, SVG Export Plug-In . SVG Version: 2.1.4 Build 3)  -->
  <defs>
    <style>
      .st0 {
        fill: #603913;
      }

      .st1 {
        fill: #fff;
      }

      .st2 {
        fill: #3c2415;
      }

      .st3 {
        fill: #808285;
      }

      .st4 {
        fill: #f1f2f2;
      }

      .st5 {
        fill: #231f20;
      }

      .st6 {
        isolation: isolate;
      }

      .st7 {
        fill: #ee2a7b;
      }

      .st8 {
        fill: #8b5e3c;
      }
    </style>
  </defs>
  <g class="st6">
    <g id="Layer_11" data-name="Layer_1">
      <g>
        <path class="st4" d="M118.64,10.63c1.55,2.73,3.27,5.36,4.73,8.14.23-.32.48-.62.74-.92-.74-2.73-1.69-5.38-2.56-8.07-.84-.3-1.67-.6-2.51-.9-.14.58-.27,1.17-.4,1.75Z"/>
        <path class="st8" d="M75.28,20.74c1.46-.56,2.84-1.24,4.26-1.91,2.86-.26,6.08-.53,8.87-.87,2.79-.34,6.1-.4,8.53-.97,2.43-.57,3.49-1.51,5.82-2.04,2.38-2.22,7.56-4.64,9.87-5.85s1.61-1.21,3.34-2.2c.82-.16,1.83-.43,2.72-.66.36.23.81.42,1.14.66.33.24.34.33.71.64s1.02.89,1.45,1.25c0,.44-.03.86-.04,1.29.88,2.12,1.81,4.21,2.59,6.37.42.37.84.73,1.26,1.1-.3.03-.6.06-.9.09-.48-.45-.97-.89-1.45-1.34-.72-2.17-1.71-4.26-2.51-6.4-.15.26-.29.52-.44.79-.35-.49-.71-.98-1.06-1.47.04.52.07,1.05.11,1.57,1.06,2.3,2.3,4.5,3.31,6.82-.55.3-1.12.4-1.73.54-.88-.97-1.88-1.81-2.75-2.77-.88-.96-1.66-1.97-2.49-3.02-.43,1.11-.84.96-1.32,2.32s-2.04,2.22-1.93,4.48c.1,2.26,1.79,3.65,2.33,7.23.54,3.57,9.3,2.94,9.03,7.92-.64-4.45-8.8-2.08-12.3-8.15-1,.66-1.92,1.37-2.81,2.18,2.8,7.09,9.9,7.85,7.81,14.52.97-6.47-8.66-6.29-12.99-13.78-2.05,1.61-2,2.79-4.79,4.23-2.79,1.44-8.46,2.57-12.07,2.66-.71,6.63-8.87,7.41-13.44,11.08,3.85-5.63,10.63-5.57,6.71-12.85-5.34,9.68-5.33,4.48-13.63,8.42,4.96-3.97,7.38-3.36,8.07-10.32-.81-1.33-1.6-2.68-2.41-4.01.2-1.44.41-2.86.47-4.31.96-1.01,1.9-2.06,2.68-3.22Z"/>
        <path class="st3" d="M121.47,20.58c.84.34,1.75.53,2.62.77.46-.36.92-.72,1.37-1.08-.01-.54-.03-1.09-.04-1.63.12-.36.25-.72.36-1.08-.44-.18-1.13-.56-1.51-.69s-.48-.04-.81-.13c.09.4.15.78.23,1.17-.27-.14-.54-.27-.81-.4-.56.35-1.14.5-1.77.67-.05.31-.14.59-.2.9-.06.3-.07.63-.13.94.23.2.46.39.69.59Z"/>
        <path class="st0" d="M123.39,21.33c-.33-.99-2-.5-2.51-1.15-.51-.65.03-1.07.19-1.71-1.75-1.26-5.55-4.56-6.13-6.13-.58-1.57.48-2.68.61-3.17.14-.49.21-.42.2.06,0,.48-.7,1.66-.35,3.04.35,1.38,4.78,5.28,5.65,5.99.87.71.06-.02.27.24.21.26,0-.2-.04.14-.04.34-.72.87-.23,1.52.49.65,2.37,1.13,3.13,1.01.76-.12,1.16-.7,1.31-1.15.15-.46-.23-1.1-.24-1.35-.01-.25-.05-.01-.02-.11.04-.12-.07.08.06-.08s.39-.58.32-.92c-.08-.34-.6-.68-.82-.75-.22-.07.03,0-.1-.03-.84-2.36-1.88-4.67-2.84-6.99.02-.02,0-.02.02-.04.34-.27.27-.59.1-.97-.16-.38-.86-.57-1.07-.62s-.08-.02-.09-.03c-.15-.21-.2-.41-.32-.62.06.04.12-.11.17-.04.13.16.04.34.29.54.25.2.91.46,1.09.82.18.36.13.66.01,1,.94,2.26,1.93,4.5,2.76,6.8.44.19.8.44.95.92.15.48-.23.68-.31,1.1-.09.42.35.84.21,1.4-.14.56-.76,1.12-1.41,1.34-.19.07-.81.19-.86-.01-.05-.2-.02-.04-.02-.05Z"/>
        <path class="st2" d="M124.58,18.67c-.04-.25-.44-.23-.52-.29s0-.15.1-.14.43.35.59.18c.16-.17.26-.56.14-.76-.12-.2-.55-.3-.6-.43s-.09-.18.07-.19c.16,0,.55.29.69.53.14.25,0,.78-.14.97-.13.18-.27.19-.32.15s-.01,0-.01-.01Z"/>
        <path class="st2" d="M122.62,19.61c-.07.02-.12-.02-.17-.04-.42-.12-.51-.72-.53-.98s0,.05,0-.15c-.02-.19.42-.43.56-.38.14.05.1.11.07.2-.03.09-.4.11-.41.23s0-.06,0,.13c0,.18.11.69.35.77.25.09.57.03.68-.07.11-.1.05.02.05-.1,0-.12-.3-.53-.25-.65.04-.12.04-.16.16-.09.11.06.28.6.28.75s0,.14-.1.24c-.09.1-.57.11-.65.13-.08.02-.02,0-.02,0Z"/>
        <path class="st0" d="M123.42,18.13c-.49-.48.69.72-.26-.24-.95-.96-3.4-5.39-3.98-7.31,0-.05.08-.13.18-.01.58,1.1,2.76,7.24,3.88,6.92,1.12-.32-1.64-5.52-2.02-6.42,0-.18.11-.06.16-.12.86,2.06,2.6,4.84,2.18,7.1-.03.17-.09.08-.14.07-.05-.01.07.07.01.02Z"/>
        <path class="st5" d="M121,8.43c.41.07.71.43.7.86-.01.43-.36.68-.77.6s-.73-.44-.71-.87c.02-.43.37-.67.78-.6Z"/>
        <path class="st5" d="M117.37,8.92c.48.09.89.48.85,1.01-.04.52-.56.73-1.04.63-.48-.1-.9-.48-.84-.99.07-.51.55-.73,1.03-.64Z"/>
        <path class="st1" d="M117.16,9.32c.14.03.27.15.25.3s-.17.21-.31.18-.26-.14-.25-.29c.02-.15.16-.22.3-.19Z"/>
        <path class="st1" d="M121.1,8.65c.14.03.26.15.26.3s-.13.23-.28.21c-.15-.03-.27-.15-.26-.3,0-.15.14-.23.28-.2Z"/>
        <path class="st0" d="M66.25,42.9c1.59-1.24-2.44,1.54.63-.86,6.9-3.69,7.12-8.43,7.12-8.43l-.7-2.33s-1.07-1.34-1.14-3.06c-.06-1.73-.14-2.95,1.07-4.81,1.22-1.86,2.21-3.28,5.25-4.42,3.03-1.14,9.11-1.18,12.82-1.41,2.76-.17,5.53-.08,8.13-1.17,4.06-1.7,9.26-5.76,12.76-7.63,1.8-.96,4.09-2.18,4.57-2.38,1.39-.59,2.2-.32,2.59-.19.39.13.19.18,0,.16-.91-.09-.88-.36-2.51.2-.56.19-2.76,1.42-4.51,2.35-3.62,1.91-8.74,5.96-12.83,7.66-2.62,1.09-5.48,1.02-8.17,1.18-3.59.21-10.03.29-12.73,1.41-4.75,1.96-6.07,5.06-6.23,8.92-.09,2.22,1.21,3.25,1.21,3.25l.68,2.29s-.73,5.67-7.56,8.67c8.36-3.47,8.32,1.03,13.85-8.24,1.2.34-1.42-.41.65.18,2.07.59,7.79,1.58,11.19,1.19,3.4-.39,9.84-3.91,11.43-5.69,1.59-1.78-.36.43.55-.6,4.48,8.38,12.7,6.09,12.25,14.12,1.55-7.92-4.85-7.08-8.12-14.82,1.33-1.02,2.72-1.92,4.21-2.68,1.94,5.39,10.4,3.48,11.11,8.2-.21-5.21-7.06-3.08-9.27-8.28-.02-.05-2.29-5.39-2.11-6.73.18-1.34,2.08-4.76,2.67-5.21.59-.45.63-.43.2.13s-2.49,3.74-2.68,5.1c-.18,1.36,2.06,6.57,2.09,6.66,3.34,7.78,7.42-.14,9.41,11.46-.07-.02-.11.02-.17.03-2.6-10.1-8.05-3.07-11.59-11.05-1.25.78-2.43,1.78-3.4,2.89,3.99,9.15,7.11,3.89,7.86,15.23-.06,0-.11.01-.17.01-2.85-11.21-6.85-4.69-12.34-14.31-3.19,3.24-7.63,5.52-11.99,6.18-4.36.66-7.66-.56-11.72-1.47-5.61,9.31-6,4.43-14.34,8.26.13-.09-.1.08-.05.04Z"/>
        <path class="st7" d="M115.99,7.77c-.64-.96-1.27-1.93-1.89-2.9.02-.71.05-1.37.04-2.1.54.69.74.66,1.36,1.52.62.86,1.67,2.61,2.41,3.61-.63-.02-1.28-.1-1.93-.13Z"/>
        <path class="st0" d="M116.01,8.43c-1.27-1.28-2.09-3.17-2.14-4.98,0-.28-.11-.68.32-.63,1.32.14,2.71,3.31,3.34,4.36.08.13.41.55.42.65s0,.06-.04.06c-.07,0,.09.2-.09.08s-.22-.31-.53-.82c-.52-.85-1.78-3.83-3.12-4.17-.1-.03-.1.22-.13.5-.21,1.69,2.19,3.93,2.83,4.65.64.72-.88.19-.84.28.03.08.05.07-.02,0Z"/>
        <path class="st7" d="M119.84,6.89c-.11-1.21-.18-2.43-.27-3.64.2.08.39.13.59.24.08.8.33,2.31.4,2.94.07.63-.07.39-.04.86-.24-.16-.46-.25-.69-.39Z"/>
        <path class="st0" d="M120.24,7.39c.18-1.3.32-2.97-.32-4.12-.07-.13.1-.36-.19-.06-.28.3-.15,3.07.13,3.66-.09.05-.14.02-.2.02-.18-.99-.55-3.16.06-3.91.21-.26.31.07.35.14.72,1.38.67,3.05.62,4.59-.11-.09-.36-.21-.43-.3-.05-.07-.02.07,0-.03Z"/>
        <path class="st0" d="M72.1,47.97c-.06-.09-.11-.18-.17-.26,3-3.95,11.38-5.63,9.45-10.99.15.03.3.07.44.1,1.73,5.26-6.37,6.62-9.29,10.39,3.78-3.19,12.26-4.36,13.2-9.6.19.04.39.09.58.13-1.46,5.38-10.13,6.86-14.21,10.22Z"/>
        <polygon class="st2" points="65.65 43.04 67.18 45.09 68.12 42.19 65.65 43.04"/>
        <path class="st2" d="M71.92,48.08c.47.63.93,1.25,1.4,1.88.2-1.33.39-2.66.62-3.98-.68.69-1.35,1.4-2.02,2.1Z"/>
        <path class="st2" d="M116.77,44.18c1.04,0,2.09-.08,3.13-.09-1.2-1-2.06-1.89-2.93-3.18-.19,1.18-.4,2.09-.2,3.28Z"/>
        <path class="st2" d="M124.06,37.09c.64-.42,1.29-.83,1.95-1.23-.81-.57-1.46-1.35-2.3-1.88.01,1.08.06,2.05.35,3.1Z"/>
        <path class="st2" d="M78.42,19.82c-2.67,1.65-5.81,2.68-5.81,2.68,0,0-6.53,4.62-8.45,8.72,1.98-2.39,2.72-2.84,2.72-2.84,0,0-1.42,3.32-1.25,4.54.16-1.54,2.26-4.48,2.26-4.48,0,0-.36,3.63.52,5.3-1.18-3.71,2.92-5.9,4.85-8.55,1.93-2.66,3-2.55,4.98-4.43.04-.23.12-.61.17-.94,0,.04,0,0,0,0Z"/>
        <path class="st2" d="M117.39,5.89c.27.5.53,1.01.81,1.5.09-.26.18-.52.27-.78.25.15.5.29.75.44-.17-.5-.33-1.01-.49-1.52-.45.12-.9.25-1.35.36Z"/>
        <path class="st2" d="M114.77,8.17c-.3-.35-.59-.7-.89-1.05-.46.45-.92.89-1.39,1.34-.49-.1-.98-.2-1.47-.3-.97.76-1.95,1.51-2.87,2.32-.62.04-1.23.09-1.85.16-.82.83-1.6,1.69-2.34,2.59-.64.08-1.27.18-1.91.28-.66.75-1.31,1.52-1.93,2.31-.48,1.25-.96,2.51-1.32,3.81.61-1.14,1.29-2.24,1.98-3.33.12.46.23.91.39,1.36.64-1.04,1.35-2.02,2.05-3.02-.08.54-.15,1.07-.22,1.61.74-1.01,1.48-2.01,2.29-2.96.15.68.31,1.35.5,2.02.9-1.28,1.88-2.48,2.95-3.61.09.31.17.62.27.92.66-.74,1.45-1.35,2.19-2.01.15.32.3.64.45.96.53-.66,1.05-1.33,1.56-2.01.12.2.24.4.35.6.41-.65.82-1.3,1.19-1.97Z"/>
      </g>
    </g>
  </g>
  <g>
    <path class="st2" d="M30.89,44.48c.8-.07,1.59-.15,2.38-.23-.92-.72-1.71-1.55-2.52-2.37-.05.89-.07,1.74.14,2.61Z"/>
    <path class="st4" d="M51.8,13.55c.3,2.9.07,5.77.08,8.68.39-.17.79-.33,1.18-.5.58-2.75,1.19-5.48,1.52-8.27-.63-.5-1.28-.98-1.96-1.42-.27.51-.53,1.01-.81,1.51Z"/>
    <path class="st8" d="M11.13,24.84c1.17-.96,1.31-1.56,2.4-2.6,2.58-1.19,5.24-2.42,7.98-3.19s6.14-.88,8.73-1.3c2.59-.42,4.09-1.07,6.59-1.46,2.48-1.81,7.42-4.02,9.76-4.97,2.34-.95,1.89-1.05,3.72-1.82.8.04,1.77-.03,2.64-.03.28.29.66.56.9.87.24.31.29.41.51.8.22.39.79,1.05.9,1.54.09.4-.41.77-.43,1.19-.11,2.26-.33,4.54-.7,6.79.2.49.44.94.67,1.42-.22-.17-.69-.04-.86-.27-.36-.48-.49-1.19-.71-1.75.45-2.2.66-4.39.76-6.63-.22.21-.45.42-.67.63-.13-.54-.26-1.08-.45-1.61-.03.5-.35.96-.35,1.46,0,2.4-.08,4.75-.51,7.12-.57-.03-1.14-.06-1.71-.07-.14-1.05-.2-2.03-.38-3.09s-.46-2.1-.73-3.21c-.71,1.36-.75.67-1.57,2.46-.81,1.79-1.57,3.2-2.49,6.23-.92,3.02-2.31,7.2-3.1,11.53s-4.53,10.25-7.79,13.8c2.7-5.12,4.67-10.23,5.29-16.09-1.16.35-2.2.88-3.23,1.51-1.97,5.83-4.75,10.4-9.2,14.67,3.26-5.2,4.61-10.68,5.66-16.67-1.38.42-2.18,1.15-3.74,1.31-1.56.16-3.56.05-5.04.99,2.25,2.05,5.39,3.63,7.35,5.84.46.52-.43.63-.51.91-3.92-1.57-7.81-3-11.8-4.31.82,3.05,3.2,5.52,5.29,7.8-.65.96-1.3,1.92-1.95,2.89-1.07.74-2.14,1.48-3.21,2.22,1.11-1.7,2.32-3.3,3.36-5.08-2.38-1.14-7.63-4.54-8.73-6.15-1.77-2.57-1.6-2.53-3.37-4.28-.21-1.55-.71-3.19-1.26-4.72.45-1.38,1.67-3.26,1.98-4.68Z"/>
    <path class="st3" d="M49.33,23.2c.63.54,1.46,1.02,2.14,1.55.59-.15,1.18-.27,1.76-.44.26-.42.48-1.03.73-1.41.26-.38.57-.51.82-.85-.34-.3-.8-.83-1.09-1.11-.29-.28-.43-.26-.68-.49-.12.39-.27.79-.38,1.16-.25-.08-.29-.62-.53-.65-.5-.06-1.29-.1-1.79.02-.29.07-.5.56-.7.77-.2.22-.55.59-.61.84-.04.17.16.45.32.6Z"/>
    <path class="st0" d="M50.78,24.45c-.61-.36-1.71-.85-1.8-1.65s.68-1,1.07-1.59c-.48-1.79-1.33-4.97-1.58-6.5-.25-1.53.61-2.28.96-2.95s.31-.55.18.08c-.13.64-.9,1.52-.76,2.82s1.03,4.95,1.31,6.18c.27,1.23.07.16.09.47.02.31.12-.22-.13.15-.24.38-1.16.57-.94,1.36.22.79,1.7,1.6,2.43,1.79s1.33-.15,1.73-.49c.4-.34.32-.97.42-1.21.1-.24,0-.06.04-.15s.02-.02.06-.04c.33-.16.62-.36.75-.71s-.21-.73-.4-.91,0,.01-.1-.09c.38-2.48.64-4.95.75-7.47,0-.01-.1.04.07-.05s.47-.48.38-.84c-.08-.36-.54-.73-.75-.87-.22-.14-.09,0-.11-.09s-.12-.56-.1-.61c.02-.05.11-.14.16-.01.06.13-.04.33.13.58s.67.68.72,1.06c.05.38-.12.64-.34.93-.08,2.45-.36,4.86-.71,7.29.29.33.56.65.46,1.12-.1.47-.49.5-.78.87-.29.37-.06.86-.49,1.28-.42.42-1.19.73-1.9.59-.21-.04-.55-.2-.83-.36Z"/>
    <path class="st2" d="M53.14,22.61c-.16-.04-.37-.28-.38-.41s.06-.16.18-.09.25.42.48.34c.23-.08.48-.36.47-.6,0-.23-.36-.42-.35-.58,0-.16-.02-.22.16-.14s.39.43.39.7c0,.27-.34.67-.56.76-.22.1-.23.05-.39,0Z"/>
    <path class="st2" d="M50.77,22.67c-.11-.05-.13-.08-.17-.11-.36-.28-.06-.76.06-1s0,0,.09-.16c.09-.16.52-.29.65-.18.13.11.05.15-.05.21-.1.06-.36-.03-.45.07-.09.1.02,0-.09.13-.11.14-.31.59-.13.76s.51.23.68.21c.16-.02.07.05.12-.06.05-.11-.02-.52.08-.62.1-.1.12-.14.21,0,.09.13,0,.57-.1.7s-.09.11-.24.17c-.15.06-.54-.06-.66-.12Z"/>
    <path class="st0" d="M52.23,21.65c-.1-.13.12.98-.11-.51-.23-1.49-.05-5.5.16-7.49.01-.1.12-.12.13.02.12,1.27-1.49,6.9.04,7.14s1.43-5.17,1.36-6.19c-.01-.16.13-.09.17-.11-.04,2.52-.13,5.03-1.56,7.17-.1.16-.09.1-.19-.03Z"/>
    <path class="st5" d="M54.88,13.04c-.15.38-.53.55-.89.36s-.48-.62-.34-.99c.14-.37.5-.53.86-.35.36.19.52.61.37.98Z"/>
    <path class="st5" d="M51.64,12.81c-.16.45-.61.56-1.02.38-.41-.19-.66-.6-.51-1.05.15-.45.6-.57,1.01-.38.41.19.67.61.51,1.06Z"/>
    <path class="st1" d="M51.01,12.39c-.05.13-.18.17-.3.11s-.2-.18-.15-.31c.05-.13.18-.17.3-.11.12.05.2.18.15.31Z"/>
    <path class="st1" d="M54.69,12.65c-.05.14-.18.18-.31.12-.13-.07-.19-.21-.14-.35.05-.14.18-.18.31-.12.13.07.19.21.14.35Z"/>
    <path class="st0" d="M19.22,50.07c-.15-.08-.29-.16-.44-.23,1.18-1.72,2.41-3.39,3.54-5.15-2.57-1.61-6.99-4.28-8.69-6.25s-2.87-1.22-3.67-3.3c-.8-2.08-.78-4.01-.37-6.48.41-2.47.54-4.04,3.24-6.06,2.71-2.02,7.76-3.75,11.55-4.26,2.82-.38,5.9-.14,8.67-.97,4.32-1.29,9.65-4.66,13.21-6.4,1.84-.9,3.98-1.49,4.54-1.66,1.66-.52,2,.02,2.67.25.67.23.2.2.12.19-1.33-.19-.77-.66-2.73-.27-.67.13-2.69.78-4.47,1.64-3.7,1.78-8.93,5.14-13.29,6.43-2.79.83-5.92.62-8.69.96-3.68.45-8.63,2.31-11.04,4.3-4.22,3.5-3.52,7.06-2.78,10.97.42,2.25,1.25,1.91,2.54,2.89,2.86,2.96,6.16,5.48,9.42,8.05-1.12,1.69-2.21,3.4-3.33,5.09,1.72-1.67,3.43-3.35,5.15-5.03-2.23-2.28-4.58-4.8-5.38-7.94.95-.69,1.38-1.01,2.44-1.81,1.07-.8,3.08-1.35,4.51-1.34s2.86,0,4.08-.39c1.22-.38,1.92-.95,3.05-1.35-1.38,6.1-2.95,11.75-6.36,17.06,4.35-4.45,7.24-9.05,9.24-14.95,1.45-.68,2.85-1.24,4.45-1.45-.82,5.84-3.07,10.54-6.07,15.6,3.73-5.13,6.55-7.67,7.73-15.12.01-.08,2.13-8.8,2.98-10.34.85-1.54,2.08-5.67,3.03-6.56.95-.88.91-.84.11.15s-2.11,4.95-2.97,6.49-2.96,10.22-2.98,10.31c-1.52,8.56-5.27,11.81-9.71,17.79-.03-.11-.1-.09-.15-.15,3.56-5.76,6.63-11.18,7.66-17.96-1.49.52-2.81,1.23-4.12,2.11-2.1,5.96-5.37,10.39-9.77,14.86-.05-.03-.1-.07-.14-.1,3.36-5.14,5.15-10.43,6.58-16.37-2.21.59-4.1.7-6.45.9s-4.53.97-6.49,2.42c.7,3.21,2.96,5.83,5.13,8.22-1.86,1.73-3.72,3.47-5.58,5.2Z"/>
    <path class="st7" d="M50.12,10.39c-.39-1.07-.88-2.1-1.35-3.14.11-.69.24-1.35.34-2.06.43.78.68.87,1.16,1.82s1.16,2.71,1.57,3.86c-.57-.12-1.14-.33-1.71-.49Z"/>
    <path class="st0" d="M49.85,10.66c-.4-.78-1.58-3.5-1.07-4.81.08-.2-.08-.82.41-.54,1.52.86,1.99,3.18,2.49,4.81.06.2.23.56.22.7s.02.1-.06.07.09.34-.11.03-.09-.27-.32-.98c-.38-1.18-.9-3.67-2.3-4.46-.11-.06-.14.24-.2.48-.33,1.48,1.35,3.84,1.83,4.84.48,1.01-.49.65-.89-.12Z"/>
    <path class="st7" d="M53.88,10.34c.21-1.17.35-2.35.53-3.53.08.17.49.17.5.39.02.74-.15,2.16-.22,2.77-.08.62-.19.43-.27.89-.17-.21-.36-.35-.54-.53Z"/>
    <path class="st0" d="M54.22,10.61c.18-.64,1.05-2.74.5-3.67-.06-.1.23-.56-.19-.05-.42.52-.74,2.59-.64,3.39.01.11-.18.07-.17,0,.07-1.17.09-2.75.87-3.67.27-.31.27.16.3.21.58,1.04.1,3.46-.34,4.16-.44.7-.5.27-.32-.36Z"/>
    <path class="st0" d="M31.14,39.35c-.13.64-.39,1.18-.57,1.78-3.56-1.39-7.15-2.71-10.65-4.23.44-.12.89-.24,1.33-.36,2.96,1.41,5.97,2.72,8.96,4.06.12-.46.23-.91.36-1.37-2.09-1.62-4.21-3.03-6.51-4.46.83.39.09-.33,1.27.44s4.28,3.07,5.82,4.12Z"/>
    <path class="st2" d="M19.17,50.22c.76.37,1.52.74,2.29,1.11.14-1.2.26-2.41.38-3.62-.89.83-1.77,1.67-2.67,2.5Z"/>
    <path class="st2" d="M26.11,49.74c.75.7,1.44,1.45,2.15,2.19-.04-1.49-.08-2.99-.16-4.48-.68.75-1.34,1.52-1.99,2.3Z"/>
    <path class="st2" d="M32.49,50.84c.75.22,1.5.44,2.26.67-.15-1.15-.31-2.29-.49-3.44-.59.92-1.19,1.84-1.77,2.76Z"/>
    <path class="st2" d="M12.77,23.51c-1.9,2.68-3.98,3.24-4.79,6.92-.81,3.68-.69,8.72.13,12.68.06-1.14.03-2.38.11-3.56.53,1.4,1.12,2.78,1.73,4.16-.41-1.79-.85-3.56-.99-5.39,1.17,2.13,2.51,4.14,4.26,5.76-2.87-3.43-3.39-9.5-2.87-13.14s1.71-3.64,2.57-6.53c.07-.22-.18-.56-.15-.9Z"/>
    <path class="st2" d="M51.79,8.84c.16.53.31,1.08.44,1.61.16-.11.28-.6.46-.62.18-.02.4.45.58.52-.03-.5-.08-1.03-.13-1.55-.45.01-.9.03-1.35.04Z"/>
    <path class="st2" d="M48.97,10.56c-.24-.38-.47-.76-.7-1.14-.48.38-.95.77-1.43,1.15-.45-.17-.9-.34-1.37-.47-.96.69-1.9,1.41-2.83,2.16-.62.01-1.23.03-1.85.04-.86.78-1.7,1.59-2.54,2.4-.69.02-1.36.06-2.06.09-.71.75-1.7,1.28-2.3,2.13-.78,1.09-1.25,2.43-1.91,3.6.82-1.05,1.68-2.07,2.53-3.09.07.49.15.97.22,1.46.84-.98,1.71-1.92,2.59-2.86-.15.55-.3,1.09-.44,1.64.91-.94,1.84-1.87,2.78-2.78.1.71.21,1.42.29,2.13,1.07-1.17,2.13-2.35,3.25-3.48.09.32.18.63.27.95.67-.66,1.34-1.31,2.03-1.95.14.33.26.66.39,1,.48-.63.97-1.25,1.5-1.83.09.21.17.41.26.62.44-.58.88-1.17,1.31-1.75Z"/>
  </g>
</svg>